<svg width="231" height="221" viewBox="0 0 231 221" fill="none" xmlns="http://www.w3.org/2000/svg">
<path d="M220.029 96.6031C217.287 103.796 211.53 108.671 209.486 123.456C209.097 126.277 209.446 130.698 209.486 132.976H203.385C202.228 126.053 201.426 115.625 203.006 106.224C204.88 95.1925 210.752 89.166 214.85 87.9497C219.391 86.5889 222.91 89.0264 220.029 96.6031Z" fill="#E0E0E0"/>
<path d="M216.23 91.6582C216.203 91.6305 216.17 91.6085 216.134 91.5934C216.099 91.5784 216.06 91.5707 216.021 91.5707C215.982 91.5707 215.943 91.5784 215.908 91.5934C215.872 91.6085 215.839 91.6305 215.812 91.6582C209.666 98.1832 203.44 114.618 206.72 132.966H207.373C203.968 114.668 210.149 98.5421 216.25 92.067C216.301 92.0096 216.327 91.9348 216.323 91.8586C216.319 91.7823 216.286 91.7104 216.23 91.6582Z" fill="white"/>
<path d="M218.045 120.714C215.463 124.632 213.384 127.02 211.36 132.976H207.502C207.502 119.518 212.676 111.776 215.178 108.965C217.91 105.895 221.878 103.048 224.919 105.735C226.833 107.425 225.866 110.221 224.58 112.429C223.124 114.937 220.392 117.145 218.045 120.714Z" fill="#F0F0F0"/>
<path d="M221.733 108.681C221.713 108.647 221.685 108.617 221.652 108.594C221.62 108.57 221.583 108.554 221.543 108.546C221.504 108.537 221.464 108.537 221.424 108.545C221.385 108.553 221.348 108.568 221.315 108.591C217.008 111.378 210.224 123.117 208.913 132.976H209.521C210.817 123.341 217.526 111.767 221.644 109.1C221.711 109.056 221.758 108.987 221.775 108.909C221.792 108.83 221.777 108.749 221.733 108.681Z" fill="white"/>
<path d="M23.2086 132.881L28.0387 130.09C28.0387 130.09 30.9149 118.127 29.7684 107.39C28.1583 92.2763 18.2089 86.5887 14.4256 87.8947C10.6422 89.2007 9.54556 93.5972 15.8063 102.6C19.5 107.908 24.036 118.969 23.2086 132.881Z" fill="#F0F0F0"/>
<path d="M25.2075 127.009H25.1626C25.1193 127.001 25.0781 126.984 25.0414 126.96C25.0046 126.936 24.973 126.904 24.9485 126.868C24.9239 126.831 24.9069 126.79 24.8983 126.747C24.8897 126.703 24.8897 126.659 24.8984 126.616C27.5453 112.659 22.6752 97.0117 16.6438 90.4967C16.5873 90.4299 16.5588 90.3439 16.5643 90.2567C16.5697 90.1694 16.6087 90.0876 16.6731 90.0283C16.7374 89.9691 16.8222 89.9371 16.9096 89.9389C16.9971 89.9407 17.0804 89.9763 17.1422 90.0381C23.2784 96.6727 28.2431 112.594 25.5564 126.745C25.5388 126.823 25.4941 126.893 25.4303 126.941C25.3664 126.99 25.2875 127.014 25.2075 127.009Z" fill="white"/>
<path d="M11.051 139.9C10.3282 140.264 8.40907 138.624 7.87571 138.225C6.95892 137.531 6.23621 136.612 5.77716 135.558C5.26547 134.36 5.13663 133.034 5.40829 131.76C5.5538 131.082 5.74703 130.416 5.98652 129.766L6.64449 127.852C6.90112 127.234 7.03162 126.572 7.02832 125.903C6.92364 124.567 5.79211 123.575 4.76029 122.718C3.61879 121.771 2.44241 120.534 2.52715 118.934C2.67849 117.695 3.23384 116.541 4.10729 115.649C4.91979 114.722 5.87187 113.91 6.59963 112.923C7.18048 112.237 7.50939 111.374 7.53177 110.475C7.48729 109.922 7.32949 109.384 7.06819 108.895C6.56972 107.823 5.85691 106.831 5.52793 105.69C5.19894 104.549 5.31857 103.163 6.23077 102.405C6.98345 101.782 8.05516 101.742 9.02219 101.857C9.9178 102.016 10.7681 102.368 11.5145 102.889C14.0069 104.429 15.2829 107.514 17.9248 108.736C18.9218 109.209 20.0782 109.359 21.1499 109.698C22.2216 110.037 23.2983 110.65 23.7469 111.692C24.6392 113.72 22.6802 116.063 23.2485 118.197C23.7719 120.086 25.5414 120.888 26.4686 122.613C26.845 123.374 26.969 124.235 26.8225 125.07C26.6626 126.487 26.2436 127.863 25.5863 129.128C24.8505 130.427 24.0365 131.681 23.1488 132.881L11.051 139.9Z" fill="#E0E0E0"/>
<path d="M18.0445 136.256C17.9593 136.248 17.8807 136.207 17.8256 136.142C17.7705 136.077 17.7435 135.992 17.7504 135.907C18.9068 123.371 13.6879 109.199 9.58548 104.952C9.55141 104.923 9.5238 104.888 9.50443 104.847C9.48506 104.807 9.47437 104.763 9.47304 104.719C9.47171 104.674 9.47978 104.629 9.49673 104.588C9.51368 104.547 9.53912 104.509 9.57141 104.478C9.6037 104.448 9.64211 104.424 9.68417 104.409C9.72623 104.394 9.77099 104.388 9.81555 104.391C9.86011 104.394 9.90348 104.407 9.94284 104.428C9.98221 104.449 10.0167 104.478 10.0441 104.514C14.2262 108.845 19.5548 123.251 18.3834 135.967C18.3758 136.05 18.3361 136.126 18.2728 136.18C18.2095 136.234 18.1275 136.262 18.0445 136.256Z" fill="white"/>
<path d="M16.7983 120.794C16.7672 120.801 16.7348 120.801 16.7036 120.794C12.7159 119.343 7.73119 118.87 7.66141 118.865C7.57759 118.857 7.50018 118.817 7.44603 118.752C7.39188 118.688 7.36538 118.604 7.3723 118.521C7.37467 118.479 7.38566 118.438 7.40458 118.401C7.42349 118.363 7.44993 118.33 7.48222 118.303C7.51451 118.277 7.55197 118.257 7.59224 118.245C7.63251 118.234 7.67472 118.231 7.71624 118.236C7.77107 118.236 12.8704 118.735 16.9229 120.2C16.9982 120.223 17.0624 120.272 17.1028 120.34C17.1433 120.407 17.157 120.487 17.1414 120.564C17.1258 120.641 17.0819 120.709 17.0184 120.755C16.9549 120.802 16.8763 120.822 16.7983 120.814V120.794Z" fill="white"/>
<path d="M37.7789 112.649C-4.94976 137.323 -4.94976 177.32 37.7839 202.014C80.5176 226.708 149.8 226.683 192.533 202.014C235.267 177.345 235.262 137.343 192.533 112.669C149.805 87.9946 80.5126 87.9796 37.7789 112.649Z" fill="#3D64AF"/>
<path d="M57.568 202.398C76.558 202.398 91.9524 193.511 91.9524 182.549C91.9524 171.587 76.558 162.7 57.568 162.7C38.5781 162.7 23.1837 171.587 23.1837 182.549C23.1837 193.511 38.5781 202.398 57.568 202.398Z" fill="#E0E0E0"/>
<path d="M172.744 202.119C191.734 202.119 207.128 193.232 207.128 182.27C207.128 171.308 191.734 162.421 172.744 162.421C153.754 162.421 138.36 171.308 138.36 182.27C138.36 193.232 153.754 202.119 172.744 202.119Z" fill="#E0E0E0"/>
<path d="M19.1462 38.4718C8.5886 38.4718 0 31.4932 0 22.9445C0 14.3958 8.5886 7.41724 19.1462 7.41724C29.7037 7.41724 38.2923 14.3958 38.2923 22.9445C38.2923 27.1416 36.1688 31.1842 32.4602 34.1002C33.507 35.0972 35.2865 35.4212 37.2206 34.9975L38.1278 34.8031L37.6293 35.5757C36.6823 36.9714 34.7731 38.0032 32.5101 38.3322C30.454 38.6925 28.3366 38.3185 26.5285 37.2755C24.1495 38.0748 21.6557 38.4789 19.1462 38.4718ZM19.1462 8.16494C9.00233 8.16494 0.747702 14.7946 0.747702 22.9445C0.747702 31.0945 8.98239 37.7241 19.1462 37.7241C21.6239 37.7348 24.0858 37.3287 26.4288 36.5228L26.6082 36.463L26.7627 36.5676C28.4435 37.5745 30.4306 37.9425 32.3605 37.6045C33.8277 37.4412 35.2145 36.8501 36.3483 35.9047C34.3544 36.0891 32.6148 35.5109 31.6128 34.3096L31.3636 34.0055L31.6776 33.7712C35.4012 30.9649 37.5446 27.0519 37.5446 22.9445C37.5446 14.7946 29.29 8.16494 19.1462 8.16494Z" fill="#EBEBEB"/>
<path d="M211.859 38.4717C201.301 38.4717 192.713 31.4932 192.713 22.9445C192.713 18.7474 194.836 14.7048 198.55 11.7888C197.498 10.7918 195.718 10.4678 193.789 10.8865L192.877 11.0859L193.376 10.3133C194.323 8.91758 196.237 7.88575 198.495 7.55676C200.551 7.19602 202.668 7.57011 204.476 8.61351C206.854 7.81475 209.346 7.41063 211.854 7.41719C222.411 7.41719 231 14.3957 231 22.9445C231 31.4932 222.421 38.4717 211.859 38.4717ZM195.36 9.96436C197.044 9.96436 198.51 10.5376 199.392 11.5944L199.641 11.8934L199.327 12.1327C195.599 14.9191 193.46 18.862 193.46 22.9445C193.46 31.0944 201.715 37.724 211.859 37.724C222.003 37.724 230.257 31.0944 230.257 22.9445C230.257 14.7945 222.013 8.16489 211.859 8.16489C209.374 8.15677 206.905 8.56796 204.556 9.38116L204.377 9.44097L204.222 9.33629C202.807 8.37924 200.733 7.99043 198.624 8.2945C197.166 8.46449 195.788 9.05703 194.662 9.99926C194.895 9.97515 195.13 9.96351 195.364 9.96436H195.36Z" fill="#EBEBEB"/>
<path d="M112.664 0H146.111C146.823 0 147.507 0.283066 148.011 0.786928C148.515 1.29079 148.798 1.97417 148.798 2.68674V18.9019C148.792 19.611 148.507 20.2893 148.004 20.7888C147.5 21.2884 146.82 21.5687 146.111 21.5687H141.575V26.4088C141.576 26.5348 141.538 26.6581 141.467 26.7621C141.396 26.8662 141.295 26.9461 141.178 26.9911C141.06 27.0361 140.931 27.044 140.809 27.0139C140.687 26.9838 140.576 26.917 140.493 26.8226L135.813 21.5687H112.664C111.951 21.5687 111.268 21.2856 110.764 20.7818C110.26 20.2779 109.977 19.5945 109.977 18.882V2.68674C109.977 1.97417 110.26 1.29079 110.764 0.786928C111.268 0.283066 111.951 0 112.664 0Z" fill="#3D64AF"/>
<path d="M119.782 11.1009H90.3723C89.6597 11.1009 88.9763 11.3839 88.4725 11.8878C87.9686 12.3917 87.6855 13.075 87.6855 13.7876V29.9978C87.6855 30.7104 87.9686 31.3937 88.4725 31.8976C88.9763 32.4015 89.6597 32.6845 90.3723 32.6845H94.9034V37.5197C94.9024 37.6456 94.9399 37.7689 95.0109 37.873C95.0819 37.977 95.183 38.0569 95.3006 38.1019C95.4183 38.1469 95.5469 38.1549 95.6692 38.1248C95.7915 38.0947 95.9017 38.0279 95.985 37.9334L100.701 32.6845H119.797C120.509 32.6845 121.193 32.4015 121.697 31.8976C122.201 31.3937 122.484 30.7104 122.484 29.9978V13.7776C122.482 13.4244 122.411 13.0749 122.275 12.7491C122.138 12.4233 121.939 12.1276 121.688 11.879C121.437 11.6303 121.139 11.4336 120.812 11.3001C120.485 11.1666 120.135 11.0989 119.782 11.1009Z" fill="#3D64AF"/>
<g opacity="0.5">
<path d="M119.782 11.1009H90.3723C89.6597 11.1009 88.9763 11.3839 88.4725 11.8878C87.9686 12.3917 87.6855 13.075 87.6855 13.7876V29.9978C87.6855 30.7104 87.9686 31.3937 88.4725 31.8976C88.9763 32.4015 89.6597 32.6845 90.3723 32.6845H94.9034V37.5197C94.9024 37.6456 94.9399 37.7689 95.0109 37.873C95.0819 37.977 95.183 38.0569 95.3006 38.1019C95.4183 38.1469 95.5469 38.1549 95.6692 38.1248C95.7915 38.0947 95.9017 38.0279 95.985 37.9334L100.701 32.6845H119.797C120.509 32.6845 121.193 32.4015 121.697 31.8976C122.201 31.3937 122.484 30.7104 122.484 29.9978V13.7776C122.482 13.4244 122.411 13.0749 122.275 12.7491C122.138 12.4233 121.939 12.1276 121.688 11.879C121.437 11.6303 121.139 11.4336 120.812 11.3001C120.485 11.1666 120.135 11.0989 119.782 11.1009Z" fill="white"/>
</g>
<path d="M148.798 89.0563C148.992 89.0091 149.197 89.0264 149.382 89.1055C149.566 89.1845 149.719 89.3212 149.819 89.495C149.959 89.3903 150.039 89.2009 150.203 89.1461C150.368 89.0912 150.607 89.2557 150.737 89.4202C151.238 90.0854 151.516 90.8923 151.53 91.7251C151.544 92.5579 151.294 93.3739 150.816 94.056C150.761 94.1426 150.686 94.2145 150.597 94.2653C150.489 94.3112 150.371 94.33 150.253 94.3202C149.63 94.3005 149.011 94.2102 148.409 94.051C148.101 94.0042 147.808 93.8867 147.552 93.7076C147.297 93.5286 147.087 93.293 146.938 93.0192C146.817 92.5816 146.831 92.1177 146.978 91.6882C147.077 91.1014 147.326 90.5501 147.701 90.0882C147.975 89.7741 148.404 89.161 148.798 89.0563Z" fill="#AF6152"/>
<path d="M158.633 43.5463C154.844 44.5432 152.481 45.1314 149.236 50.6744C145.443 57.1544 140.349 64.8159 139.586 66.6253C138.19 69.9651 138.2 71.1863 143.006 76.8988C145.996 80.4578 149.256 84.7596 150.313 86.0357C150.812 86.6289 150.313 87.8551 150.054 88.5828C149.635 89.7194 150.159 90.9556 149.854 93.1339C149.073 92.7713 148.249 92.51 147.402 92.3562C147.402 92.3562 149.022 90.6166 148.319 89.4552C148.294 89.4106 148.259 89.3719 148.217 89.3418C148.175 89.3117 148.128 89.2908 148.077 89.2804C148.027 89.27 147.975 89.2705 147.925 89.2817C147.874 89.2929 147.827 89.3147 147.786 89.3455C147.397 89.6446 146.789 90.3424 146.086 91.0154C144.84 92.2217 145.169 92.4809 145.767 94.5395C146.006 95.362 146.649 95.5963 149.137 96.0798C151.624 96.5633 152.367 96.2343 155.407 93.6572C158.448 91.0802 157.79 84.5303 156.27 82.0429C154.749 79.5556 150.099 70.4187 150.099 70.4187L158.603 58.2561L158.633 43.5463Z" fill="#C8856A"/>
<path d="M158.927 43.0328C154.859 43.95 152.766 44.922 150.617 47.9477C148.469 50.9734 139.441 65.8128 139.302 67.1288C140.653 69.1924 146.904 71.1165 150.099 70.4286L150.233 70.6779L158.927 58.6249V43.0328Z" fill="#3D64AF"/>
<path opacity="0.3" d="M158.927 43.0328C154.859 43.95 152.766 44.922 150.617 47.9477C148.469 50.9734 139.441 65.8128 139.302 67.1288C140.653 69.1924 146.904 71.1165 150.099 70.4286L150.233 70.6779L158.927 58.6249V43.0328Z" fill="black"/>
<path d="M150.931 69.6311L150.547 70.2193C150.547 70.2193 146.854 70.3588 143.833 69.013C142.945 68.6031 142.173 67.9782 141.587 67.1949C141.001 66.4116 140.62 65.4945 140.478 64.5268L140.827 63.8588C140.762 63.8328 140.696 63.8111 140.628 63.794C140.465 63.7464 140.292 63.7464 140.129 63.794C139.723 63.9872 139.403 64.3248 139.232 64.7411C139.076 65.1015 138.974 65.4827 138.928 65.8726C138.875 66.2229 138.786 66.567 138.664 66.8995C138.572 67.0859 138.471 67.2673 138.36 67.4428C138.079 67.9794 137.922 68.5722 137.901 69.1775C137.866 69.5309 137.907 69.8878 138.021 70.2243C138.136 70.519 138.305 70.7895 138.519 71.0218C139.855 72.5172 141.959 73.0605 143.948 73.0904C146.111 73.1303 148.838 73.0904 150.637 71.8742C150.737 71.8245 150.826 71.7545 150.898 71.6687C150.971 71.5829 151.024 71.4832 151.056 71.3757C151.081 71.1464 150.921 70.9321 150.931 70.7078C150.961 70.5508 151.012 70.3983 151.081 70.2542C151.114 70.0349 151.061 69.8112 150.931 69.6311Z" fill="#3D64AF"/>
<path opacity="0.6" d="M150.931 69.6311L150.547 70.2193C150.547 70.2193 146.854 70.3588 143.833 69.013C142.945 68.6031 142.173 67.9782 141.587 67.1949C141.001 66.4116 140.62 65.4945 140.478 64.5268L140.827 63.8588C140.762 63.8328 140.696 63.8111 140.628 63.794C140.465 63.7464 140.292 63.7464 140.129 63.794C139.723 63.9872 139.403 64.3248 139.232 64.7411C139.076 65.1015 138.974 65.4827 138.928 65.8726C138.875 66.2229 138.786 66.567 138.664 66.8995C138.572 67.0859 138.471 67.2673 138.36 67.4428C138.079 67.9794 137.922 68.5722 137.901 69.1775C137.866 69.5309 137.907 69.8878 138.021 70.2243C138.136 70.519 138.305 70.7895 138.519 71.0218C139.855 72.5172 141.959 73.0605 143.948 73.0904C146.111 73.1303 148.838 73.0904 150.637 71.8742C150.737 71.8245 150.826 71.7545 150.898 71.6687C150.971 71.5829 151.024 71.4832 151.056 71.3757C151.081 71.1464 150.921 70.9321 150.931 70.7078C150.961 70.5508 151.012 70.3983 151.081 70.2542C151.114 70.0349 151.061 69.8112 150.931 69.6311Z" fill="black"/>
<path d="M183.192 188.66C183.386 191.397 183.835 193.201 184.817 194.791C185.799 196.381 187.598 196.76 189.453 196.367C190.592 196.133 191.654 195.618 192.544 194.87C193.434 194.121 194.122 193.162 194.547 192.08C195.2 190.27 194.911 188.092 194.457 185.57L183.192 188.66Z" fill="#263238"/>
<path d="M190.659 168.617C191.417 168.667 191.691 172.335 192.155 176.004C192.678 179.942 193.904 182.125 194.328 184.777C194.921 188.456 194.692 190.116 193.441 192.369C192.189 194.622 187.25 197.004 184.967 193.839C183.107 191.257 182.973 188.356 183.107 184.677C183.222 180.864 183.337 178.197 183.142 175.291C182.958 172.53 182.729 169.853 183.382 169.539C183.441 169.943 183.496 170.456 183.556 170.855C183.601 171.159 183.696 172.654 184.119 172.664C184.152 172.318 184.152 171.969 184.119 171.622C184.068 171.31 184.137 170.989 184.314 170.725C184.542 170.506 184.837 170.37 185.151 170.336C185.892 170.169 186.64 170.041 187.394 169.953C187.772 169.911 188.151 169.889 188.531 169.888C188.994 169.835 189.463 169.835 189.926 169.888C190.017 169.917 190.101 169.964 190.173 170.028C190.244 170.092 190.301 170.17 190.34 170.257C190.38 170.392 190.395 170.534 190.385 170.675C190.389 170.931 190.425 171.186 190.49 171.433C190.52 171.543 190.594 171.672 190.704 171.647C190.814 171.622 190.824 171.513 190.824 171.423C190.824 170.974 190.759 170.65 190.734 170.137C190.734 169.898 190.674 169.569 190.669 169.33C190.664 169.09 190.679 168.856 190.659 168.617Z" fill="#37474F"/>
<path opacity="0.15" d="M191.591 185.734C191.598 185.805 191.578 185.875 191.534 185.931C191.491 185.987 191.427 186.023 191.357 186.033C191.289 186.036 191.223 186.012 191.172 185.968C191.121 185.924 191.088 185.862 191.081 185.794C191.073 185.727 191.091 185.659 191.131 185.605C191.171 185.55 191.231 185.513 191.297 185.5C191.367 185.493 191.437 185.513 191.492 185.557C191.547 185.601 191.583 185.664 191.591 185.734Z" fill="black"/>
<path opacity="0.15" d="M191.302 183.192C191.309 183.262 191.289 183.332 191.245 183.387C191.201 183.442 191.138 183.477 191.068 183.486C191.033 183.49 190.998 183.488 190.964 183.478C190.931 183.468 190.899 183.452 190.872 183.431C190.845 183.409 190.822 183.382 190.805 183.351C190.788 183.32 190.778 183.287 190.774 183.252C190.767 183.182 190.787 183.112 190.831 183.057C190.875 183.002 190.938 182.967 191.008 182.958C191.043 182.954 191.078 182.956 191.112 182.966C191.145 182.976 191.177 182.992 191.204 183.013C191.231 183.035 191.254 183.062 191.271 183.093C191.288 183.124 191.298 183.157 191.302 183.192Z" fill="black"/>
<path opacity="0.15" d="M191.028 180.789C191.036 180.86 191.017 180.931 190.973 180.987C190.929 181.043 190.864 181.08 190.794 181.089C190.726 181.091 190.66 181.067 190.609 181.023C190.557 180.979 190.525 180.917 190.517 180.85C190.51 180.782 190.528 180.714 190.568 180.66C190.608 180.605 190.667 180.568 190.734 180.555C190.804 180.548 190.874 180.569 190.929 180.612C190.984 180.656 191.019 180.72 191.028 180.789Z" fill="black"/>
<path opacity="0.15" d="M190.759 178.422C190.767 178.492 190.747 178.564 190.703 178.62C190.66 178.676 190.595 178.712 190.525 178.721C190.457 178.723 190.391 178.7 190.339 178.655C190.288 178.611 190.256 178.549 190.248 178.482C190.24 178.414 190.259 178.347 190.299 178.292C190.339 178.238 190.398 178.2 190.465 178.187C190.535 178.18 190.605 178.201 190.659 178.245C190.714 178.288 190.75 178.352 190.759 178.422Z" fill="black"/>
<path opacity="0.15" d="M185.366 178.945C185.371 178.997 185.361 179.049 185.337 179.095C185.313 179.142 185.276 179.18 185.23 179.205C185.184 179.23 185.132 179.241 185.08 179.236C185.028 179.232 184.979 179.212 184.938 179.18C184.897 179.147 184.867 179.104 184.851 179.054C184.835 179.004 184.834 178.951 184.849 178.901C184.863 178.851 184.892 178.806 184.931 178.772C184.971 178.738 185.02 178.717 185.071 178.711C185.141 178.705 185.21 178.726 185.265 178.77C185.32 178.813 185.356 178.876 185.366 178.945Z" fill="black"/>
<path opacity="0.15" d="M185.635 181.333C185.64 181.385 185.63 181.437 185.606 181.483C185.582 181.529 185.545 181.567 185.499 181.592C185.453 181.617 185.401 181.628 185.349 181.624C185.298 181.62 185.248 181.6 185.207 181.567C185.167 181.535 185.136 181.491 185.12 181.442C185.105 181.392 185.104 181.339 185.118 181.289C185.132 181.238 185.161 181.194 185.2 181.16C185.24 181.126 185.289 181.105 185.341 181.098C185.375 181.094 185.411 181.096 185.445 181.105C185.479 181.114 185.51 181.13 185.538 181.152C185.565 181.174 185.588 181.202 185.605 181.233C185.621 181.264 185.632 181.298 185.635 181.333Z" fill="black"/>
<path opacity="0.15" d="M185.909 183.735C185.916 183.805 185.895 183.875 185.851 183.93C185.808 183.985 185.744 184.021 185.674 184.029C185.607 184.032 185.541 184.008 185.489 183.964C185.438 183.92 185.405 183.858 185.398 183.79C185.39 183.723 185.408 183.655 185.449 183.601C185.489 183.546 185.548 183.509 185.615 183.496C185.685 183.489 185.756 183.51 185.811 183.555C185.866 183.6 185.901 183.665 185.909 183.735Z" fill="black"/>
<path opacity="0.15" d="M186.198 186.278C186.206 186.348 186.186 186.419 186.143 186.475C186.099 186.531 186.034 186.568 185.964 186.577C185.896 186.579 185.83 186.556 185.779 186.511C185.727 186.467 185.695 186.405 185.687 186.338C185.68 186.27 185.698 186.203 185.738 186.148C185.778 186.093 185.837 186.056 185.904 186.043C185.974 186.036 186.044 186.057 186.099 186.101C186.154 186.144 186.189 186.208 186.198 186.278Z" fill="black"/>
<path opacity="0.15" d="M188.441 187.449L186.158 169.698L187.135 169.664L188.441 187.449Z" fill="black"/>
<path d="M191.342 185.904H191.302C189.548 185.54 187.155 185.824 185.994 186.402C185.962 186.418 185.925 186.42 185.892 186.409C185.858 186.398 185.83 186.374 185.814 186.342C185.806 186.327 185.8 186.31 185.799 186.292C185.797 186.274 185.8 186.256 185.805 186.24C185.811 186.223 185.82 186.207 185.832 186.194C185.843 186.181 185.858 186.17 185.874 186.163C187.105 185.53 189.518 185.241 191.357 185.625C191.374 185.628 191.391 185.635 191.406 185.645C191.42 185.655 191.433 185.668 191.443 185.683C191.452 185.697 191.459 185.714 191.462 185.731C191.466 185.749 191.465 185.767 191.462 185.784C191.456 185.814 191.442 185.841 191.42 185.862C191.399 185.884 191.372 185.898 191.342 185.904Z" fill="#263238"/>
<path d="M191.053 183.357C191.03 183.364 191.006 183.364 190.983 183.357C189.637 182.739 187.03 183.202 185.704 183.88C185.688 183.888 185.671 183.893 185.653 183.894C185.635 183.895 185.617 183.892 185.6 183.887C185.584 183.881 185.568 183.872 185.555 183.86C185.541 183.848 185.53 183.834 185.522 183.818C185.515 183.802 185.51 183.784 185.509 183.766C185.508 183.749 185.51 183.731 185.516 183.714C185.522 183.697 185.531 183.681 185.543 183.668C185.554 183.655 185.569 183.644 185.585 183.636C186.965 182.928 189.677 182.454 191.068 183.107C191.096 183.119 191.12 183.139 191.135 183.166C191.15 183.192 191.156 183.223 191.151 183.253C191.146 183.283 191.132 183.311 191.109 183.331C191.087 183.352 191.058 183.364 191.028 183.367L191.053 183.357Z" fill="#263238"/>
<path d="M190.779 180.954C190.756 180.961 190.732 180.961 190.709 180.954C189.368 180.336 186.756 180.799 185.43 181.452C185.398 181.468 185.362 181.471 185.328 181.459C185.295 181.448 185.267 181.424 185.251 181.393C185.235 181.36 185.232 181.323 185.243 181.288C185.255 181.254 185.279 181.225 185.311 181.208C186.691 180.5 189.403 180.032 190.819 180.685C190.835 180.692 190.85 180.702 190.863 180.715C190.875 180.728 190.885 180.743 190.891 180.76C190.898 180.777 190.901 180.794 190.9 180.812C190.9 180.83 190.896 180.848 190.888 180.864C190.881 180.889 190.867 180.91 190.848 180.926C190.828 180.942 190.804 180.952 190.779 180.954Z" fill="#263238"/>
<path d="M190.51 178.586C190.487 178.593 190.463 178.593 190.44 178.586C189.094 177.968 186.487 178.432 185.161 179.085C185.129 179.1 185.093 179.103 185.059 179.092C185.025 179.08 184.998 179.056 184.982 179.025C184.973 179.009 184.968 178.991 184.966 178.973C184.965 178.955 184.967 178.937 184.972 178.92C184.978 178.903 184.987 178.887 184.999 178.873C185.011 178.859 185.025 178.848 185.041 178.84C186.422 178.137 189.134 177.664 190.549 178.317C190.566 178.324 190.581 178.334 190.593 178.347C190.606 178.36 190.616 178.375 190.622 178.392C190.629 178.409 190.632 178.427 190.631 178.444C190.631 178.462 190.627 178.48 190.619 178.496C190.612 178.521 190.598 178.542 190.578 178.558C190.559 178.574 190.535 178.584 190.51 178.586Z" fill="#263238"/>
<path d="M166.458 177.719L163.233 176.612L164.21 174.399L166.229 176.184L166.458 177.719Z" fill="black"/>
<path d="M169.579 171.812C169.579 171.812 169.768 173.906 169.818 174.564C169.868 175.222 167.141 177.36 166.459 177.724L166.229 176.184C165.651 176.807 165.317 177.584 164.734 178.731C164.235 179.688 163.597 181.492 162.157 182.748C160.023 184.618 156.639 185.64 153.159 185.874C149.68 186.108 147.676 185.311 146.644 184.578C145.613 183.845 145.294 182.968 145.513 182.085C145.732 181.203 169.579 171.812 169.579 171.812Z" fill="#263238"/>
<path d="M160.048 164.953L159.969 163.742C159.326 163.742 159.301 165.506 158.413 167.077C157.126 169.428 155.543 171.606 153.703 173.557C150.273 176.911 147.183 179.04 145.653 180.535C143.604 182.574 147.402 185.565 153.075 185.066C155.891 184.817 160.861 183.232 162.217 181.507C163.573 179.783 164.36 177.131 165.447 175.875C166.533 174.618 168.936 173.307 169.579 171.802C169.943 170.975 169.679 169.08 169.4 167.47C169.14 165.975 169.031 163.722 168.208 163.931L168.168 164.699C167.849 165.357 167.102 166.453 164.839 166.912C163.707 167.146 160.323 167.356 160.048 164.953Z" fill="#37474F"/>
<path opacity="0.15" d="M163.009 167.037C161.918 166.977 160.741 166.648 160.253 165.676V165.646C160.329 166.064 160.308 166.493 160.194 166.901C160.079 167.31 159.872 167.687 159.59 168.004C158.593 169.235 152.452 177.898 152.452 177.898C152.452 177.898 158.214 170.73 159.316 169.38C160.956 167.386 161.484 167.141 163.034 167.042L163.009 167.037Z" fill="black"/>
<path opacity="0.15" d="M161.663 169.325C161.669 169.37 161.684 169.414 161.708 169.454C161.731 169.493 161.762 169.528 161.798 169.556C161.835 169.584 161.876 169.604 161.921 169.616C161.965 169.627 162.012 169.63 162.057 169.624C162.143 169.603 162.218 169.552 162.268 169.479C162.318 169.406 162.339 169.317 162.326 169.229C162.314 169.142 162.269 169.062 162.201 169.006C162.132 168.95 162.046 168.921 161.957 168.926C161.912 168.932 161.868 168.948 161.829 168.972C161.789 168.996 161.755 169.027 161.727 169.064C161.7 169.101 161.68 169.143 161.669 169.188C161.658 169.233 161.656 169.279 161.663 169.325Z" fill="black"/>
<path opacity="0.15" d="M160.043 171.249C160.056 171.34 160.103 171.422 160.176 171.478C160.249 171.534 160.341 171.559 160.432 171.548C160.524 171.534 160.608 171.485 160.664 171.41C160.72 171.335 160.744 171.241 160.731 171.149C160.729 171.101 160.716 171.053 160.694 171.01C160.672 170.967 160.641 170.929 160.604 170.898C160.566 170.867 160.523 170.845 160.476 170.832C160.43 170.819 160.381 170.816 160.333 170.823C160.285 170.83 160.239 170.846 160.198 170.872C160.157 170.898 160.121 170.932 160.094 170.972C160.067 171.012 160.048 171.057 160.04 171.105C160.031 171.153 160.032 171.202 160.043 171.249Z" fill="black"/>
<path opacity="0.15" d="M158.423 173.173C158.429 173.218 158.443 173.261 158.466 173.301C158.489 173.34 158.519 173.375 158.555 173.402C158.592 173.43 158.633 173.45 158.677 173.461C158.721 173.472 158.767 173.474 158.812 173.467C158.881 173.458 158.946 173.429 158.998 173.383C159.05 173.338 159.088 173.278 159.105 173.211C159.123 173.144 159.121 173.073 159.098 173.007C159.076 172.942 159.034 172.884 158.979 172.842C158.924 172.801 158.857 172.776 158.788 172.772C158.718 172.768 158.65 172.785 158.59 172.821C158.53 172.856 158.483 172.909 158.453 172.971C158.423 173.034 158.413 173.104 158.423 173.173Z" fill="black"/>
<path opacity="0.15" d="M156.803 175.097C156.808 175.143 156.822 175.187 156.844 175.227C156.867 175.267 156.897 175.302 156.934 175.33C156.97 175.358 157.012 175.378 157.056 175.389C157.1 175.401 157.147 175.403 157.192 175.396C157.237 175.39 157.281 175.375 157.321 175.352C157.361 175.328 157.395 175.298 157.423 175.261C157.451 175.225 157.471 175.183 157.483 175.138C157.494 175.094 157.497 175.048 157.491 175.002C157.485 174.957 157.47 174.913 157.447 174.873C157.423 174.834 157.393 174.799 157.356 174.771C157.32 174.743 157.278 174.723 157.233 174.711C157.189 174.7 157.143 174.697 157.097 174.703C157.052 174.709 157.008 174.724 156.969 174.748C156.929 174.771 156.895 174.802 156.867 174.838C156.84 174.875 156.82 174.917 156.809 174.961C156.798 175.006 156.796 175.052 156.803 175.097Z" fill="black"/>
<path opacity="0.15" d="M155.183 177.016C155.189 177.061 155.203 177.105 155.226 177.145C155.248 177.184 155.279 177.219 155.315 177.247C155.351 177.275 155.392 177.295 155.437 177.307C155.481 177.319 155.527 177.321 155.572 177.315C155.664 177.303 155.747 177.254 155.803 177.18C155.859 177.106 155.884 177.013 155.871 176.921C155.858 176.829 155.81 176.746 155.736 176.69C155.662 176.634 155.569 176.61 155.477 176.622C155.432 176.628 155.388 176.643 155.349 176.667C155.309 176.69 155.275 176.721 155.247 176.757C155.22 176.794 155.2 176.836 155.189 176.88C155.178 176.925 155.176 176.971 155.183 177.016Z" fill="black"/>
<path d="M162.012 169.414C162.038 169.41 162.063 169.399 162.083 169.382C162.103 169.364 162.118 169.342 162.127 169.317C162.135 169.291 162.136 169.264 162.13 169.239C162.124 169.213 162.111 169.189 162.092 169.17C162.017 169.105 160.298 167.53 158.104 167.725C158.068 167.73 158.034 167.748 158.011 167.777C157.988 167.806 157.977 167.842 157.98 167.879C157.982 167.898 157.987 167.915 157.996 167.932C158.005 167.948 158.017 167.962 158.031 167.974C158.045 167.985 158.062 167.994 158.08 167.999C158.097 168.004 158.116 168.006 158.134 168.004C160.193 167.819 161.878 169.365 161.898 169.38C161.913 169.394 161.931 169.405 161.951 169.411C161.971 169.417 161.992 169.418 162.012 169.414Z" fill="#263238"/>
<path d="M160.402 171.333C160.434 171.328 160.464 171.312 160.487 171.289C160.5 171.276 160.511 171.26 160.518 171.243C160.525 171.226 160.529 171.207 160.529 171.189C160.529 171.17 160.525 171.152 160.518 171.135C160.511 171.118 160.5 171.102 160.487 171.089C160.412 171.019 158.692 169.444 156.499 169.639C156.463 169.642 156.43 169.66 156.406 169.688C156.383 169.716 156.372 169.752 156.375 169.788C156.378 169.826 156.397 169.86 156.425 169.884C156.454 169.909 156.492 169.921 156.529 169.918C158.583 169.733 160.273 171.274 160.288 171.289C160.302 171.304 160.32 171.316 160.34 171.323C160.36 171.331 160.381 171.335 160.402 171.333Z" fill="#263238"/>
<path d="M158.782 173.263C158.808 173.258 158.833 173.247 158.853 173.23C158.873 173.212 158.888 173.19 158.896 173.165C158.905 173.139 158.906 173.112 158.9 173.087C158.894 173.061 158.881 173.037 158.862 173.018C158.787 172.949 157.067 171.373 154.874 171.573C154.838 171.577 154.805 171.594 154.782 171.622C154.758 171.65 154.747 171.686 154.75 171.722C154.753 171.76 154.772 171.794 154.8 171.818C154.829 171.843 154.867 171.855 154.904 171.852C156.963 171.667 158.648 173.208 158.668 173.223C158.682 173.238 158.7 173.249 158.72 173.256C158.74 173.263 158.761 173.265 158.782 173.263Z" fill="#263238"/>
<path d="M157.162 175.186C157.188 175.182 157.213 175.171 157.233 175.154C157.253 175.136 157.268 175.114 157.276 175.089C157.285 175.063 157.286 175.036 157.28 175.011C157.274 174.985 157.26 174.961 157.242 174.942C157.167 174.872 155.447 173.297 153.254 173.492C153.218 173.498 153.185 173.517 153.162 173.545C153.139 173.574 153.128 173.61 153.129 173.646C153.133 173.684 153.152 173.718 153.18 173.742C153.209 173.767 153.246 173.779 153.284 173.776C155.343 173.591 157.027 175.132 157.047 175.147C157.062 175.162 157.08 175.173 157.1 175.18C157.12 175.187 157.141 175.189 157.162 175.186Z" fill="#263238"/>
<path d="M155.532 177.091C155.549 177.09 155.565 177.086 155.58 177.078C155.594 177.07 155.607 177.059 155.617 177.046C155.63 177.033 155.641 177.017 155.648 177C155.655 176.983 155.659 176.965 155.659 176.946C155.659 176.928 155.655 176.909 155.648 176.892C155.641 176.875 155.63 176.859 155.617 176.846C155.542 176.782 153.822 175.206 151.629 175.401C151.596 175.41 151.567 175.43 151.547 175.459C151.527 175.487 151.519 175.521 151.522 175.556C151.526 175.59 151.542 175.622 151.567 175.646C151.592 175.669 151.625 175.683 151.659 175.685C153.713 175.501 155.402 177.041 155.422 177.056C155.437 177.07 155.454 177.08 155.473 177.086C155.492 177.092 155.512 177.094 155.532 177.091Z" fill="#263238"/>
<path d="M190.624 86.6338C192.16 108.696 192.244 132.578 192.244 132.578C192.939 137.839 193.33 143.137 193.416 148.444C193.49 156.469 192.533 173.631 192.533 173.631C192.533 173.631 187.479 177.25 182.026 174.524C182.026 174.524 177.978 152.8 176.159 141.156C174.703 131.845 173.113 122.135 173.113 122.135L171.902 132.029C172.491 136.155 172.687 140.328 172.485 144.491C172.176 149.177 170.038 168.417 170.038 168.417C170.038 168.417 162.281 172.405 157.152 167.211C157.152 167.211 155.542 136.939 155.213 131.321C154.565 120.27 154.421 100.865 154.685 86.8382L190.624 86.6338Z" fill="#455A64"/>
<path d="M173.108 122.135L169.893 100.76C169.893 100.76 164.569 100.162 161.763 97.7347C161.763 97.7347 163.632 101.01 168.677 102.131L171.339 119.473L171.897 132.029L173.108 122.135Z" fill="#263238"/>
<path d="M178.058 40.8745C180.186 41.2783 182.758 41.7967 182.758 41.7967C182.758 41.7967 186.402 43.0727 187.539 43.5463C187.539 43.5463 193.625 51.7561 192.05 62.199C191.721 64.3773 190.858 71.8892 190.888 76.4452C190.923 82.5963 191.078 89.2608 191.078 89.2608C191.078 89.2608 184.099 93.5725 169.12 92.6853C157.342 91.9874 154.5 88.8421 154.5 88.8421C154.5 88.8421 154.635 72.9609 154.804 64.2826C155.024 52.8826 156.419 45.0616 158.927 43.0329L167.251 40.3013L178.058 40.8745Z" fill="#3D64AF"/>
<path opacity="0.6" d="M178.058 40.8745C180.186 41.2783 182.758 41.7967 182.758 41.7967C182.758 41.7967 186.402 43.0727 187.539 43.5463C187.539 43.5463 193.625 51.7561 192.05 62.199C191.721 64.3773 190.858 71.8892 190.888 76.4452C190.923 82.5963 191.078 89.2608 191.078 89.2608C191.078 89.2608 184.099 93.5725 169.12 92.6853C157.342 91.9874 154.5 88.8421 154.5 88.8421C154.5 88.8421 154.635 72.9609 154.804 64.2826C155.024 52.8826 156.419 45.0616 158.927 43.0329L167.251 40.3013L178.058 40.8745Z" fill="black"/>
<path d="M183.177 18.8422C182.677 17.8364 181.815 17.0566 180.765 16.6589C180.191 13.8127 176.453 11.8039 174.145 11.0611C171.005 10.0642 167.789 10.787 164.829 12.0032C163.797 12.5018 162.658 12.7332 161.514 12.6762C161.015 12.6164 160.457 12.3771 160.372 11.8886C160.19 12.0088 160.034 12.1649 159.914 12.3475C159.794 12.53 159.712 12.7352 159.674 12.9503C159.409 13.9511 159.517 15.0144 159.978 15.9411C159.762 15.9943 159.559 16.0923 159.383 16.2288C159.207 16.3654 159.062 16.5374 158.957 16.7337C158.592 17.3272 158.378 18.0009 158.334 18.696C158.29 19.3911 158.416 20.0865 158.702 20.7214C159.904 23.3882 162.8 23.4032 165.232 24.1659L172.48 26.399L178.556 28.2932L178.462 31.4784V36.0244C179.176 35.7867 179.772 35.2835 180.127 34.6187C181.198 32.594 181.988 30.4322 182.474 28.1935C183.945 22.2368 183.8 19.9638 183.177 18.8422Z" fill="#263238"/>
<path d="M182.679 32.2211C180.341 33.4374 179.214 31.5931 179.214 31.5931L179.115 41.0141C176.622 44.2841 171.613 44.1694 168.213 47.7534C166.882 45.5651 166.623 42.4846 167.411 40.6602L167.361 38.5118C166.674 38.5148 165.987 38.4664 165.307 38.3673C163.209 38.0931 161.409 36.6874 160.726 33.881C159.899 30.5014 160.003 23.9964 160.851 19.5202C161.175 17.7955 161.718 17.307 162.715 16.7836C165.207 15.4726 172.555 15.0489 174.608 18.0597C174.369 19.914 174.957 21.9477 176.672 22.516C176.807 25.447 177.26 26.8527 178.422 27.3063C179.369 27.6751 179.788 26.2146 180.416 25.5217C180.721 25.2511 181.086 25.0551 181.48 24.9492C181.874 24.8434 182.288 24.8305 182.688 24.9117C183.088 24.9929 183.464 25.1659 183.786 25.4171C184.108 25.6683 184.367 25.9908 184.543 26.3592C184.813 26.8648 184.98 27.4195 185.032 27.9905C185.085 28.5615 185.022 29.1373 184.848 29.6837C184.674 30.2301 184.393 30.7362 184.02 31.172C183.648 31.6078 183.191 31.9646 182.679 32.2211Z" fill="#C8856A"/>
<path d="M167.361 38.5167C170.107 38.427 172.535 38.0182 174.14 37.2954C175.745 36.5727 177.131 34.3345 177.534 32.1512C177.579 33.9009 176.896 37.0263 174.474 38.3771C172.051 39.728 169.19 39.8725 167.395 39.9672L167.361 38.5167Z" fill="#AF6152"/>
<path d="M169.988 21.7035L172.111 23.0643C172.289 22.7731 172.347 22.4244 172.272 22.0914C172.198 21.7585 171.997 21.4675 171.712 21.2798C171.572 21.191 171.416 21.1315 171.252 21.1047C171.088 21.078 170.921 21.0846 170.76 21.1242C170.599 21.1637 170.447 21.2355 170.315 21.335C170.182 21.4345 170.071 21.5599 169.988 21.7035Z" fill="#263238"/>
<path d="M161.419 22.2966L163.752 21.2997C163.694 21.1446 163.606 21.003 163.492 20.8833C163.378 20.7636 163.24 20.6684 163.088 20.6036C162.936 20.5387 162.773 20.5056 162.607 20.5061C162.442 20.5067 162.278 20.5409 162.127 20.6068C161.815 20.7442 161.568 20.9961 161.436 21.3105C161.304 21.6249 161.298 21.9779 161.419 22.2966Z" fill="#263238"/>
<path d="M171.333 24.9385C171.331 25.1424 171.269 25.3411 171.153 25.5092C171.038 25.6773 170.875 25.8073 170.685 25.8825C170.496 25.9577 170.288 25.9748 170.089 25.9316C169.89 25.8884 169.708 25.7868 169.566 25.6398C169.425 25.4928 169.331 25.3071 169.295 25.1062C169.26 24.9054 169.285 24.6986 169.368 24.5122C169.45 24.3257 169.587 24.1681 169.759 24.0594C169.932 23.9506 170.133 23.8958 170.336 23.9017C170.605 23.9095 170.86 24.0225 171.047 24.2164C171.233 24.4103 171.336 24.6695 171.333 24.9385Z" fill="#263238"/>
<path d="M164.16 24.6193C164.159 24.8234 164.098 25.0226 163.983 25.1914C163.868 25.3602 163.705 25.4909 163.516 25.5669C163.326 25.6429 163.119 25.6607 162.919 25.618C162.719 25.5754 162.537 25.4742 162.395 25.3274C162.253 25.1806 162.158 24.9948 162.123 24.7938C162.087 24.5929 162.112 24.3858 162.194 24.1991C162.277 24.0123 162.413 23.8544 162.586 23.7455C162.758 23.6365 162.959 23.5815 163.164 23.5875C163.431 23.5965 163.685 23.7092 163.871 23.9017C164.057 24.0943 164.161 24.3516 164.16 24.6193Z" fill="#263238"/>
<path d="M167.092 23.1989L166.419 29.7537L162.929 28.5723C163.896 26.4915 165.318 24.655 167.092 23.1989Z" fill="#AF6152"/>
<path d="M169.893 30.6509L166.434 31.897C166.506 32.1294 166.624 32.3449 166.781 32.5305C166.938 32.7162 167.131 32.8682 167.349 32.9776C167.566 33.0869 167.803 33.1513 168.046 33.1669C168.288 33.1826 168.532 33.1491 168.761 33.0684C169.226 32.8901 169.604 32.5386 169.815 32.0878C170.026 31.637 170.054 31.122 169.893 30.6509Z" fill="#AF6152"/>
<path d="M169.544 31.289C169.689 31.2536 169.838 31.2352 169.988 31.2341C169.998 31.6292 169.886 32.0178 169.666 32.3464C169.447 32.675 169.13 32.9273 168.761 33.0685C168.574 33.1339 168.377 33.1659 168.178 33.1632C168.121 32.7351 168.231 32.3016 168.486 31.9526C168.74 31.6036 169.119 31.3659 169.544 31.289Z" fill="#F28F8F"/>
<path d="M168.213 47.7533C168.213 47.7533 169.958 46.1433 171.079 46.1433C172.375 46.1433 173.572 48.5209 173.926 49.3534C174.279 50.1858 174.205 50.1759 175.346 49.4531C177.353 48.2026 179.254 46.7888 181.029 45.2261C183.247 43.1624 183.396 41.7966 183.396 41.7966C183.396 41.7966 179.907 38.3073 179.145 38.402V39.6283C178.99 40.7698 171.972 43.3867 171.353 43.96C170.203 45.1347 169.152 46.4036 168.213 47.7533Z" fill="#3D64AF"/>
<path d="M164.071 48.3564C164.24 48.825 165.427 44.8223 166.149 44.912C166.498 44.9469 167.266 46.3177 168.213 47.7533C167.934 46.6317 167.261 45.3158 167.216 43.8453C167.207 42.7805 167.271 41.7163 167.406 40.6601L167.376 39.5286C167.136 39.5286 166.379 39.9672 165.581 40.8744C164.856 41.6753 164.365 42.6598 164.161 43.7207C163.88 45.2509 163.85 46.8165 164.071 48.3564Z" fill="#3D64AF"/>
<g opacity="0.3">
<path d="M168.213 47.7533C168.213 47.7533 169.958 46.1433 171.079 46.1433C172.375 46.1433 173.572 48.5209 173.926 49.3534C174.279 50.1858 174.205 50.1759 175.346 49.4531C177.353 48.2026 179.254 46.7888 181.029 45.2261C183.247 43.1624 183.396 41.7966 183.396 41.7966C183.396 41.7966 179.907 38.3073 179.145 38.402V39.6283C178.99 40.7698 171.972 43.3867 171.353 43.96C170.203 45.1347 169.152 46.4036 168.213 47.7533Z" fill="black"/>
<path d="M164.071 48.3564C164.24 48.825 165.427 44.8223 166.149 44.912C166.498 44.9469 167.266 46.3177 168.213 47.7533C167.934 46.6317 167.261 45.3158 167.216 43.8453C167.207 42.7805 167.271 41.7163 167.406 40.6601L167.376 39.5286C167.136 39.5286 166.379 39.9672 165.581 40.8744C164.856 41.6753 164.365 42.6598 164.161 43.7207C163.88 45.2509 163.85 46.8165 164.071 48.3564Z" fill="black"/>
</g>
<path d="M187.539 43.5463C194.457 45.3507 195.404 47.1003 198.266 53.0471C199.736 56.1027 203.405 63.2457 204.487 65.6533C207.831 73.1303 208.051 77.3025 205.842 79.0472C203.315 81.041 189.124 63.3404 189.124 63.3404C189.124 63.3404 182.031 48.7503 187.539 43.5463Z" fill="#3D64AF"/>
<path opacity="0.3" d="M187.539 43.5463C194.457 45.3507 195.404 47.1003 198.266 53.0471C199.736 56.1027 203.405 63.2457 204.487 65.6533C207.831 73.1303 208.051 77.3025 205.842 79.0472C203.315 81.041 189.124 63.3404 189.124 63.3404C189.124 63.3404 182.031 48.7503 187.539 43.5463Z" fill="black"/>
<path opacity="0.3" d="M200.972 75.832C200.374 75.2189 199.696 74.4911 198.978 73.7036C195.489 69.5015 189.124 63.3404 189.124 63.3404C188.475 61.9823 187.898 60.5914 187.394 59.1732C189.722 60.4194 198.998 65.0103 201.7 67.1487C204.631 69.4616 204.955 71.5502 205.748 73.9478L200.972 75.832Z" fill="black"/>
<path d="M196.067 64.7112C199.198 64.3274 205.563 67.3382 206.929 69.3919C208.295 71.4455 207.617 73.1553 208.026 74.4563C208.434 75.7573 208.609 78.1499 207.293 79.441C205.977 80.732 202.059 82.1476 198.32 79.117L196.067 64.7112Z" fill="#3D64AF"/>
<path opacity="0.6" d="M196.067 64.7112C199.198 64.3274 205.563 67.3382 206.929 69.3919C208.295 71.4455 207.617 73.1553 208.026 74.4563C208.434 75.7573 208.609 78.1499 207.293 79.441C205.977 80.732 202.059 82.1476 198.32 79.117L196.067 64.7112Z" fill="black"/>
<path d="M189.538 61.5908C186.721 60.1602 185.739 59.7565 183.695 57.7177C181.652 55.679 179.847 54.6372 178.397 53.6403C176.946 52.6433 176.009 50.9386 175.222 50.2208C174.673 49.7223 173.98 50.6245 174.18 51.9355C174.319 52.8427 175.012 53.8895 175.969 54.9263C176.926 55.9631 176.423 55.8435 175.236 55.679C173.068 55.5095 170.89 55.5095 168.721 55.679C167.53 55.8535 166.374 56.2871 166.563 57.0448C166.563 57.0448 164.649 56.8654 164.569 57.8772C164.49 58.8891 165.92 59.6119 165.92 59.6119C165.92 59.6119 165.85 60.4493 167.331 60.9528C168.163 61.2369 170.69 61.6058 171.593 61.8401C172.62 62.1043 173.721 62.503 173.721 62.503C172.252 62.4283 170.779 62.4283 169.31 62.503C168.098 62.6625 168.263 63.5 169.664 64.0782C171.064 64.6564 175.112 64.6365 176.313 65.125C177.514 65.6135 178.576 65.8278 180.909 66.087C182.161 66.1968 183.32 66.7884 184.144 67.7369C185.56 69.2323 191.865 74.4015 193.48 76.0963C195.161 77.8034 197.293 78.9979 199.626 79.5407C202.742 80.3831 205.369 79.5656 205.947 78.9874C206.525 78.4091 206.839 76.4552 205.538 73.4494C203.824 69.4866 202.966 68.7339 200.145 66.9444C197.005 64.9605 191.048 62.3535 189.538 61.5908Z" fill="#C8856A"/>
<path d="M175.969 54.9162C176.552 55.5443 176.592 55.7487 176.273 55.7736C176.732 55.7736 177.654 55.968 177.769 55.5991C177.883 55.2303 176.966 54.7118 176.064 54.1037C175.281 53.5425 174.64 52.807 174.19 51.9553C174.319 52.8426 175.012 53.8894 175.969 54.9162Z" fill="#AF6152"/>
<path d="M166.563 57.0348C168.417 56.8828 170.28 56.8678 172.136 56.9899C172.903 57.0411 173.666 57.1461 174.419 57.304C175.174 57.4462 175.921 57.6275 176.657 57.8473C175.894 57.8473 175.137 57.7825 174.384 57.7077C173.631 57.633 172.889 57.5432 172.146 57.5183C171.403 57.4934 169.584 57.3738 168.826 57.294C168.068 57.2143 167.321 57.1245 166.563 57.0348Z" fill="#AF6152"/>
<path d="M165.9 59.6019C165.891 59.4975 165.91 59.3924 165.955 59.2979C166.014 59.2052 166.097 59.1296 166.194 59.0785C166.389 58.9865 166.598 58.9275 166.812 58.9041C167.231 58.8584 167.653 58.8501 168.073 58.8791C168.901 58.914 170.775 59.0237 171.603 59.1134C172.016 59.1683 172.435 59.2181 172.854 59.2979C173.273 59.3776 173.681 59.5022 174.08 59.6069C174.883 59.8212 175.69 60.0505 176.493 60.3147C175.66 60.2499 174.833 60.1502 174 60.0107C173.582 59.9459 173.178 59.8362 172.784 59.7913C172.39 59.7465 171.972 59.6817 171.563 59.6418C170.74 59.5421 168.871 59.4075 168.049 59.2929C167.646 59.2272 167.24 59.1856 166.832 59.1682C166.463 59.1483 166 59.1583 165.9 59.6019Z" fill="#AF6152"/>
<path d="M176.139 62.6226C176.139 62.6226 174.783 62.3335 174.01 62.1241C173.238 61.9148 170.7 61.6705 170.7 61.6705C170.91 61.7054 171.398 61.7752 171.573 61.8201C172.6 62.0843 173.701 62.483 173.701 62.483C174.516 62.4877 175.329 62.5342 176.139 62.6226Z" fill="#AF6152"/>
<path d="M64.457 165.127L63.5647 156.205L74.6556 155.158C74.6556 155.158 74.1571 162.211 74.1821 165.446C74.1821 166.972 75.2488 169.853 75.2488 169.853C75.2488 169.853 70.8623 172.076 68.6092 171.129C66.3561 170.182 64.8856 166.598 64.9455 165.945L64.457 165.127Z" fill="#FFBDA7"/>
<path d="M87.835 180.779C87.9896 180.779 88.0444 182.215 87.1671 182.878C86.1702 183.645 82.97 185.061 79.2514 184.373C75.5328 183.685 73.5689 182.434 72.1383 181.113C70.7077 179.792 68.7138 177.933 67.0389 177.474C65.5377 176.976 64.1477 176.191 62.9465 175.162C62.4481 174.663 62.6624 172.525 62.6624 172.525L87.835 180.779Z" fill="#263238"/>
<path d="M64.3772 164.295C64.3772 164.295 64.1678 164.385 64.0432 164.873C63.8937 165.456 63.6693 167.156 63.3653 168.108C62.9416 169.429 62.5478 172.161 62.6923 173.262C62.8369 174.364 65.748 175.844 67.353 176.552C69.2333 177.488 70.961 178.703 72.4773 180.156C74.1521 181.681 77.771 183.376 80.2185 183.496C83.1096 183.635 86.4194 182.893 87.2419 181.617C88.2388 180.037 89.0414 178.177 84.8742 175.984C84.0816 175.565 81.3301 173.746 80.388 173.093C77.8557 171.318 76.0961 169.718 75.0543 166.767C74.9771 166.408 74.7781 166.085 74.4911 165.855C74.2342 165.731 73.9452 165.689 73.6636 165.736C72.9408 165.79 70.0697 166.02 69.4017 166.289C68.8085 166.528 67.9761 166.787 67.9462 167.52C67.9461 167.774 67.9865 168.026 68.0658 168.268C68.1057 168.417 68.1356 168.617 68.001 168.696C67.8664 168.776 67.7119 168.671 67.6023 168.567C67.2073 168.119 66.8489 167.641 66.5305 167.136C66.2159 166.682 65.8712 166.249 65.4987 165.84C65.2531 165.688 65.0167 165.522 64.7909 165.342C64.5338 165.053 64.3873 164.682 64.3772 164.295Z" fill="#455A64"/>
<path d="M72.4773 180.156C71.7636 179.502 71.0166 178.884 70.2391 178.307C70.2391 178.307 75.1042 181.602 77.2177 180.351C78.5785 179.538 78.0202 178.431 78.0053 178.088C77.9903 177.744 82.7706 175.595 84.0517 175.505C84.3956 175.72 84.6798 175.899 84.8692 176.004C88.1391 177.499 88.4831 179.229 87.8002 181.333C86.9777 182.614 83.9969 183.825 80.2583 183.606C77.8208 183.446 74.1521 181.682 72.4773 180.156Z" fill="#37474F"/>
<path d="M77.7161 177.091C80.3231 178.287 79.1567 178.716 78.404 178.776C77.6513 178.835 73.3146 176.014 70.7027 173.731C67.981 171.348 65.9323 168.248 64.9204 167.366C64.5416 167.037 64.1378 166.638 63.7839 166.269C63.8836 165.696 63.9734 165.172 64.0431 164.898C64.1678 164.4 64.3771 164.32 64.3771 164.32C64.4542 164.688 64.5959 165.039 64.7958 165.357C65.0217 165.537 65.258 165.703 65.5036 165.855C65.8761 166.264 66.2208 166.697 66.5355 167.151C66.8538 167.656 67.2122 168.134 67.6072 168.582C69.7656 171.608 75.1141 175.869 77.7161 177.091Z" fill="#37474F"/>
<path d="M78.2346 178.357C78.1863 178.353 78.1401 178.335 78.101 178.307C78.0619 178.278 78.0314 178.239 78.0129 178.195C77.9943 178.15 77.9885 178.101 77.9959 178.053C78.0034 178.005 78.0239 177.96 78.0551 177.923C78.8626 177.056 82.5413 175.102 84.5053 175.431C84.5391 175.436 84.5714 175.448 84.6005 175.466C84.6296 175.484 84.6548 175.508 84.6747 175.536C84.6947 175.563 84.7089 175.595 84.7166 175.628C84.7243 175.662 84.7253 175.696 84.7196 175.73C84.7142 175.764 84.702 175.797 84.6837 175.826C84.6653 175.856 84.6413 175.881 84.6129 175.901C84.5846 175.921 84.5525 175.935 84.5186 175.943C84.4847 175.95 84.4497 175.951 84.4156 175.944C82.5962 175.645 79.087 177.594 78.434 178.277C78.4084 178.304 78.3773 178.325 78.3429 178.338C78.3085 178.352 78.2716 178.358 78.2346 178.357Z" fill="#263238"/>
<path d="M75.9966 176.816C75.9357 176.815 75.8774 176.792 75.8321 176.752C75.807 176.728 75.7871 176.699 75.7735 176.668C75.7598 176.636 75.7528 176.602 75.7528 176.567C75.7528 176.533 75.7598 176.498 75.7735 176.467C75.7871 176.435 75.807 176.406 75.8321 176.383C76.6346 175.52 80.3183 173.566 82.2772 173.89C82.311 173.896 82.3434 173.908 82.3725 173.926C82.4015 173.944 82.4268 173.967 82.4467 173.995C82.4666 174.023 82.4808 174.055 82.4886 174.088C82.4963 174.121 82.4973 174.156 82.4916 174.189C82.4869 174.224 82.4751 174.257 82.4569 174.287C82.4388 174.317 82.4147 174.343 82.3862 174.363C82.3577 174.383 82.3253 174.397 82.2911 174.404C82.257 174.411 82.2217 174.411 82.1875 174.404C80.3681 174.11 76.8589 176.054 76.2059 176.742C76.1787 176.769 76.1459 176.79 76.1097 176.803C76.0734 176.816 76.0348 176.82 75.9966 176.816Z" fill="#263238"/>
<path d="M73.7484 175.356C73.6992 175.353 73.6519 175.335 73.612 175.307C73.572 175.278 73.5409 175.238 73.5222 175.193C73.5036 175.147 73.498 175.097 73.5063 175.048C73.5145 175 73.5362 174.954 73.5689 174.917C74.3715 174.055 78.0551 172.101 80.0141 172.425C80.0482 172.43 80.0809 172.441 80.1103 172.459C80.1398 172.477 80.1653 172.501 80.1853 172.529C80.2054 172.557 80.2195 172.588 80.2269 172.622C80.2343 172.656 80.2349 172.69 80.2285 172.724C80.2231 172.758 80.2108 172.791 80.1925 172.821C80.1742 172.85 80.1501 172.876 80.1218 172.896C80.0934 172.916 80.0613 172.93 80.0274 172.937C79.9935 172.944 79.9585 172.945 79.9244 172.938C78.105 172.639 74.5958 174.583 73.9428 175.271C73.918 175.298 73.8879 175.319 73.8545 175.334C73.821 175.349 73.7849 175.356 73.7484 175.356Z" fill="#263238"/>
<path d="M71.6798 173.711C71.6315 173.707 71.5853 173.69 71.5462 173.661C71.5071 173.632 71.4766 173.594 71.4581 173.549C71.4395 173.504 71.4337 173.455 71.4411 173.407C71.4486 173.359 71.4691 173.314 71.5003 173.277C72.3078 172.41 75.9865 170.461 77.9455 170.785C78.014 170.796 78.0754 170.834 78.1165 170.89C78.1575 170.946 78.1749 171.015 78.1648 171.084C78.1527 171.153 78.1139 171.214 78.0569 171.254C78 171.294 77.9295 171.31 77.8608 171.298C76.0414 171.004 72.5321 172.948 71.8791 173.631C71.8535 173.658 71.8225 173.679 71.7881 173.693C71.7537 173.706 71.7168 173.713 71.6798 173.711Z" fill="#263238"/>
<path d="M69.6609 172.071C69.6021 172.067 69.546 172.045 69.5014 172.006C69.477 171.982 69.4576 171.953 69.4444 171.922C69.4311 171.89 69.4243 171.856 69.4243 171.822C69.4243 171.788 69.4311 171.754 69.4444 171.722C69.4576 171.69 69.477 171.661 69.5014 171.637C70.613 170.411 74.4512 168.821 76.4002 169.145C76.434 169.15 76.4663 169.163 76.4954 169.181C76.5245 169.199 76.5497 169.222 76.5696 169.25C76.5896 169.278 76.6038 169.309 76.6115 169.343C76.6192 169.376 76.6202 169.41 76.6145 169.444C76.6024 169.513 76.5636 169.574 76.5066 169.614C76.4497 169.654 76.3792 169.67 76.3105 169.658C74.5608 169.369 70.8821 170.9 69.8952 171.986C69.8667 172.019 69.8302 172.045 69.7891 172.059C69.7481 172.074 69.7039 172.078 69.6609 172.071Z" fill="#263238"/>
<path d="M44.0796 169.908L47.2499 159.086L36.5328 156.743L35.6705 167.565C35.6705 167.565 34.6735 170.426 35.2069 171.463C35.7403 172.5 42.1854 173.955 42.8285 173.322C43.4715 172.689 44.0796 169.908 44.0796 169.908Z" fill="#FFBDA7"/>
<path d="M41.8813 187.135C41.4426 189.577 40.8245 191.123 39.6731 192.409C38.5216 193.695 36.6125 193.789 34.7731 193.017C32.9338 192.244 30.6508 190.664 30.3517 188.431C30.0526 186.198 30.3517 184.757 31.0147 182.539L41.8813 187.135Z" fill="#263238"/>
<path d="M35.6704 167.565C34.8878 167.475 34.9775 169.424 34.3993 172.719C33.7712 176.288 31.9717 179.005 31.214 181.846C30.3467 185.096 30.3766 186.621 31.4633 188.884C32.5499 191.147 36.9813 193.984 39.5983 191.516C41.7367 189.522 42.0906 186.906 42.3149 183.541C42.4129 180.689 42.6742 177.844 43.0975 175.022C43.5312 172.53 44.7225 170.312 44.0945 169.908C43.9998 170.267 43.1723 172.749 42.7386 172.679C42.7378 172.363 42.7695 172.047 42.8333 171.737C42.8733 171.595 42.8833 171.447 42.8627 171.301C42.8421 171.155 42.7914 171.015 42.7137 170.89C42.357 170.574 41.9422 170.33 41.4925 170.172C40.7448 169.898 39.3989 169.529 38.6263 169.325C38.2424 169.22 37.8586 169.135 37.4698 169.065C37.1421 168.998 36.8061 168.979 36.4729 169.011C36.3819 169.017 36.2935 169.043 36.2141 169.088C36.1347 169.133 36.0664 169.195 36.0143 169.27C35.961 169.387 35.9322 169.515 35.9296 169.644C35.9051 169.874 35.8463 170.099 35.7551 170.312C35.7152 170.406 35.6255 170.511 35.5158 170.466C35.4778 170.444 35.4475 170.41 35.4288 170.37C35.4101 170.33 35.404 170.285 35.4111 170.242C35.4411 169.838 35.6305 167.774 35.6704 167.565Z" fill="#455A64"/>
<path d="M31.4982 180.929C31.3636 181.397 30.5461 184.503 31.4583 185.256C32.3705 186.008 33.3077 183.675 33.3077 183.675C33.3077 183.675 35.8598 183.456 39.2893 185.525C39.045 186.023 39.4089 187.818 40.4407 187.638C41.4726 187.459 42.2651 183.875 42.2751 183.83C42.0657 187.055 41.652 189.562 39.5784 191.516C36.9614 193.984 32.53 191.147 31.4434 188.884C30.3567 186.621 30.3268 185.096 31.1942 181.846C31.2988 181.522 31.4135 181.218 31.4982 180.929Z" fill="#37474F"/>
<path d="M33.5669 183.94C33.4124 185.146 32.1213 184.488 32.2559 182.773C32.3905 181.058 33.5569 176.946 34.0753 174.16C34.5738 170.132 34.8878 167.475 35.6704 167.565C35.6704 167.605 35.6704 167.645 35.6704 167.685C35.6704 167.724 35.4461 169.983 35.4162 170.242C35.1221 172.699 34.7831 177.494 34.2946 179.713C33.9639 181.105 33.7208 182.517 33.5669 183.94Z" fill="#37474F"/>
<path d="M38.8905 185.415C39.3813 184.074 39.7875 182.704 40.1068 181.313C40.6053 179.134 42.2303 174.798 43.0328 172.465C43.2671 172.086 44.0746 169.908 44.0746 169.908C44.608 170.097 43.93 172.176 43.616 173.153C43.302 174.13 42.9182 175.147 42.5094 176.572C41.5125 179.319 41.1785 183.516 40.5504 185.096C39.9224 186.676 38.5067 186.562 38.8905 185.415Z" fill="#37474F"/>
<path d="M39.389 185.634C39.3536 185.625 39.32 185.609 39.2893 185.589C37.5188 184.473 35.4605 183.897 33.3675 183.935C33.2922 183.938 33.2182 183.915 33.1582 183.869C33.0981 183.824 33.0558 183.759 33.0385 183.685C33.0325 183.651 33.0343 183.616 33.0437 183.582C33.0531 183.549 33.0699 183.518 33.0928 183.491C33.1157 183.465 33.1442 183.444 33.1762 183.43C33.2082 183.416 33.2429 183.41 33.2777 183.411C35.5173 183.361 37.7211 183.979 39.6083 185.186C39.6386 185.204 39.6648 185.228 39.6853 185.257C39.7059 185.286 39.7203 185.318 39.7278 185.353C39.7353 185.387 39.7356 185.423 39.7288 185.458C39.7219 185.493 39.7081 185.525 39.688 185.555C39.652 185.596 39.6042 185.626 39.5508 185.641C39.4975 185.655 39.441 185.653 39.389 185.634Z" fill="#263238"/>
<path d="M40.3211 183.137C40.2874 183.127 40.2554 183.112 40.2264 183.092C38.216 181.907 35.9303 181.27 33.5968 181.243C33.5217 181.245 33.4483 181.22 33.3892 181.174C33.3301 181.128 33.2889 181.062 33.2728 180.989C33.2692 180.954 33.2731 180.918 33.2844 180.885C33.2957 180.852 33.314 180.821 33.3382 180.796C33.3623 180.77 33.3917 180.75 33.4243 180.737C33.4568 180.724 33.4919 180.718 33.527 180.719C35.9865 180.736 38.3965 181.413 40.5056 182.678C40.5368 182.695 40.5642 182.718 40.5863 182.745C40.6084 182.773 40.6246 182.805 40.6339 182.839C40.6433 182.873 40.6456 182.909 40.6406 182.944C40.6357 182.979 40.6236 183.012 40.6052 183.042C40.5718 183.084 40.5273 183.114 40.477 183.131C40.4266 183.148 40.3726 183.15 40.3211 183.137Z" fill="#263238"/>
<path d="M34.0653 178.79C34.0126 178.775 33.9645 178.748 33.9253 178.709C33.8862 178.671 33.8572 178.623 33.841 178.571C33.8329 178.537 33.8323 178.502 33.8394 178.468C33.8465 178.434 33.8611 178.402 33.8821 178.375C33.9031 178.347 33.93 178.324 33.9608 178.308C33.9916 178.292 34.0256 178.283 34.0603 178.282C37.6593 177.873 40.9193 180.081 41.0389 180.176C41.0697 180.194 41.0965 180.218 41.1175 180.247C41.1385 180.275 41.1532 180.308 41.1607 180.343C41.1683 180.378 41.1684 180.414 41.1611 180.448C41.1539 180.483 41.1394 180.516 41.1186 180.545C41.0682 180.599 40.9996 180.633 40.926 180.639C40.8523 180.645 40.7789 180.624 40.7199 180.58C40.69 180.58 37.5197 178.417 34.17 178.8C34.1348 178.802 34.0995 178.799 34.0653 178.79Z" fill="#263238"/>
<path d="M34.5339 176.483C34.4807 176.47 34.4318 176.444 34.3923 176.406C34.3529 176.368 34.3243 176.321 34.3096 176.268C34.2997 176.235 34.2976 176.2 34.3033 176.165C34.309 176.131 34.3225 176.099 34.3427 176.07C34.3628 176.042 34.3892 176.019 34.4197 176.002C34.4503 175.985 34.4842 175.976 34.5189 175.974C37.0521 175.712 39.5935 176.388 41.662 177.873C41.692 177.893 41.7176 177.918 41.7372 177.948C41.7567 177.978 41.7697 178.012 41.7754 178.047C41.781 178.082 41.7792 178.118 41.7699 178.153C41.7607 178.187 41.7443 178.219 41.7218 178.247C41.6654 178.297 41.5927 178.324 41.5174 178.324C41.4422 178.324 41.3695 178.297 41.3131 178.247C41.3131 178.247 38.3522 176.004 34.6585 176.483C34.6173 176.49 34.5751 176.49 34.5339 176.483Z" fill="#263238"/>
<path d="M35.0672 173.886C35.0148 173.873 34.9666 173.847 34.9272 173.811C34.8879 173.774 34.8588 173.728 34.8429 173.676C34.8331 173.643 34.8308 173.609 34.8363 173.575C34.8417 173.541 34.8547 173.508 34.8744 173.48C34.894 173.452 34.9197 173.428 34.9497 173.411C34.9796 173.394 35.0129 173.384 35.0472 173.382C38.7708 172.844 42.0956 175.261 42.2352 175.376C42.2654 175.394 42.2914 175.419 42.3114 175.448C42.3314 175.478 42.3449 175.511 42.351 175.546C42.3572 175.581 42.3558 175.617 42.347 175.651C42.3382 175.685 42.3221 175.717 42.3 175.745C42.2443 175.794 42.1725 175.822 42.0981 175.822C42.0237 175.822 41.9518 175.794 41.8962 175.745C41.8663 175.72 38.6562 173.392 35.1968 173.886C35.1542 173.896 35.1098 173.896 35.0672 173.886Z" fill="#263238"/>
<path d="M42.1056 83.7476C41.8713 83.7476 41.009 94.0459 40.9292 95.0628C40.5404 99.873 40.0021 104.618 39.9323 109.439C39.8924 111.931 39.4338 116.522 39.3291 119.034C39.109 125.245 38.493 131.435 37.4848 137.567C37.0461 139.922 36.7465 142.3 36.5876 144.69C36.453 147.158 36.5876 149.675 35.9695 152.073C35.6384 153.13 35.3605 154.203 35.137 155.288C34.9327 156.683 35.2417 157.456 36.0692 158.558C36.1539 160.108 35.9495 160.606 36.3782 160.98C38.5266 162.849 42.8234 163.178 45.7095 163.173C46.1631 163.173 46.5868 162.142 46.8111 161.738C47.0355 161.334 46.9407 161.12 47.3495 160.861C47.7582 160.601 48.5109 160.362 48.9147 160.068C49.713 159.468 50.2757 158.607 50.5048 157.635C50.7789 156.693 50.8687 155.711 51.088 154.754C51.4634 153.413 51.9212 152.096 52.4588 150.811C53.3979 148.019 54.1228 145.16 54.6271 142.258C55.0558 140.119 55.4695 137.976 55.9182 135.842C57.3188 129.228 57.9918 125.046 58.7843 120.33C59.5769 115.615 61.5209 129.736 61.5209 129.736C61.5481 130.594 61.5031 131.453 61.3863 132.303C61.3166 133.978 61.3514 135.623 61.1271 137.288C60.6273 140.961 60.7199 144.69 61.4013 148.334C61.7552 150.248 62.0692 151.569 61.9596 153.518C61.8948 154.66 61.6904 155.671 62.139 156.728C62.458 157.491 62.9316 157.68 63.3353 158.383C63.5048 158.677 63.5048 160.97 63.6843 161.08C63.6843 161.08 70.3588 164.539 74.6057 161.12C74.6655 160.457 74.6057 159.126 74.8898 158.543C75.2533 158.231 75.5515 157.85 75.7671 157.422C75.9827 156.994 76.1115 156.528 76.146 156.05C76.2257 154.974 75.8967 154.186 75.8918 153.109C75.9426 151.784 76.0707 150.462 76.2756 149.152C76.4757 147.273 76.554 145.383 76.5099 143.494C76.5099 141.854 76.2158 140.109 76.4799 138.509C76.8494 135.766 77.0475 133.003 77.0731 130.235C77.437 119.557 77.6214 97.8343 76.4849 84.0367L42.1056 83.7476Z" fill="#3D64AF"/>
<path opacity="0.3" d="M42.1056 83.7476C41.8713 83.7476 41.009 94.0459 40.9292 95.0628C40.5404 99.873 40.0021 104.618 39.9323 109.439C39.8924 111.931 39.4338 116.522 39.3291 119.034C39.109 125.245 38.493 131.435 37.4848 137.567C37.0461 139.922 36.7465 142.3 36.5876 144.69C36.453 147.158 36.5876 149.675 35.9695 152.073C35.6384 153.13 35.3605 154.203 35.137 155.288C34.9327 156.683 35.2417 157.456 36.0692 158.558C36.1539 160.108 35.9495 160.606 36.3782 160.98C38.5266 162.849 42.8234 163.178 45.7095 163.173C46.1631 163.173 46.5868 162.142 46.8111 161.738C47.0355 161.334 46.9407 161.12 47.3495 160.861C47.7582 160.601 48.5109 160.362 48.9147 160.068C49.713 159.468 50.2757 158.607 50.5048 157.635C50.7789 156.693 50.8687 155.711 51.088 154.754C51.4634 153.413 51.9212 152.096 52.4588 150.811C53.3979 148.019 54.1228 145.16 54.6271 142.258C55.0558 140.119 55.4695 137.976 55.9182 135.842C57.3188 129.228 57.9918 125.046 58.7843 120.33C59.5769 115.615 61.5209 129.736 61.5209 129.736C61.5481 130.594 61.5031 131.453 61.3863 132.303C61.3166 133.978 61.3514 135.623 61.1271 137.288C60.6273 140.961 60.7199 144.69 61.4013 148.334C61.7552 150.248 62.0692 151.569 61.9596 153.518C61.8948 154.66 61.6904 155.671 62.139 156.728C62.458 157.491 62.9316 157.68 63.3353 158.383C63.5048 158.677 63.5048 160.97 63.6843 161.08C63.6843 161.08 70.3588 164.539 74.6057 161.12C74.6655 160.457 74.6057 159.126 74.8898 158.543C75.2533 158.231 75.5515 157.85 75.7671 157.422C75.9827 156.994 76.1115 156.528 76.146 156.05C76.2257 154.974 75.8967 154.186 75.8918 153.109C75.9426 151.784 76.0707 150.462 76.2756 149.152C76.4757 147.273 76.554 145.383 76.5099 143.494C76.5099 141.854 76.2158 140.109 76.4799 138.509C76.8494 135.766 77.0475 133.003 77.0731 130.235C77.437 119.557 77.6214 97.8343 76.4849 84.0367L42.1056 83.7476Z" fill="black"/>
<path opacity="0.3" d="M47.9028 96.2841C48.6555 104.758 43.9849 107.898 41.0339 107.898C41.0339 107.898 47.0106 104.873 47.9028 96.2841Z" fill="black"/>
<path opacity="0.3" d="M61.7902 101.269L58.4554 122.259C58.5651 121.611 58.6748 120.963 58.7844 120.3C59.582 115.59 61.521 129.711 61.521 129.711L61.0226 120.49C60.9023 117.607 61.1131 114.72 61.6506 111.886L63.5996 102.864C64.9633 102.513 66.2445 101.897 67.3701 101.052C68.4956 100.206 69.4435 99.1463 70.1595 97.934C67.6322 100.352 61.7902 101.269 61.7902 101.269Z" fill="black"/>
<path d="M35.7751 161.798C37.4899 163.343 42.6939 164.913 46.4025 163.851L47.3496 160.861C44.5532 161.598 38.9653 160.631 36.0692 158.558L35.7751 161.798Z" fill="#3D64AF"/>
<path opacity="0.6" d="M35.7751 161.798C37.4899 163.343 42.6939 164.913 46.4025 163.851L47.3496 160.861C44.5532 161.598 38.9653 160.631 36.0692 158.558L35.7751 161.798Z" fill="black"/>
<path d="M63.6794 161.414C64.9006 162.67 71.2362 163.532 74.6158 161.593L74.8899 158.523C72.3278 159.918 65.8228 159.844 63.3354 158.363L63.6794 161.414Z" fill="#3D64AF"/>
<path opacity="0.6" d="M63.6794 161.414C64.9006 162.67 71.2362 163.532 74.6158 161.593L74.8899 158.523C72.3278 159.918 65.8228 159.844 63.3354 158.363L63.6794 161.414Z" fill="black"/>
<path opacity="0.3" d="M39.4937 115.744C39.4937 115.744 38.4968 129.701 38.427 130.698C38.3572 131.695 45.6099 134.352 45.8642 133.734C46.2879 132.712 46.4324 130.354 48.1671 119.089C42.0808 117.773 39.4937 115.744 39.4937 115.744Z" fill="black"/>
<path opacity="0.3" d="M46.6317 122.902C46.409 122.823 46.175 122.781 45.9389 122.778C45.6647 122.748 45.3955 122.708 45.1264 122.663C44.5543 122.559 43.9898 122.418 43.4366 122.239C42.8128 122.038 42.2047 121.792 41.6171 121.502C41.1187 121.262 40.69 120.963 40.2115 120.729C40.1666 120.729 40.1467 120.799 40.1766 120.824C40.6355 121.196 41.1375 121.513 41.672 121.766C42.6782 122.277 43.75 122.648 44.8572 122.867C45.1413 122.922 45.4254 122.972 45.7146 123.007C46.014 123.082 46.3273 123.082 46.6267 123.007C46.6616 123.012 46.6766 122.922 46.6317 122.902Z" fill="black"/>
<path opacity="0.3" d="M43.581 120.694C43.5262 120.549 43.4813 120.455 43.3218 120.425C43.2571 120.409 43.1898 120.406 43.1239 120.416C43.0579 120.426 42.9947 120.45 42.938 120.485C42.8843 120.515 42.8375 120.557 42.8006 120.607C42.7637 120.657 42.7375 120.713 42.7237 120.774C42.6988 120.875 42.7062 120.981 42.7446 121.077C42.783 121.174 42.8506 121.256 42.938 121.312C43.0139 121.369 43.1044 121.403 43.1989 121.41C43.2934 121.417 43.3879 121.397 43.4714 121.352C43.5209 121.319 43.5614 121.275 43.5893 121.223C43.6171 121.171 43.6314 121.112 43.6309 121.053C43.6442 120.931 43.627 120.808 43.581 120.694ZM43.4016 121.098C43.3524 121.147 43.2881 121.177 43.2192 121.184C43.1503 121.192 43.081 121.175 43.0228 121.138C42.8433 121.008 42.9181 120.639 43.1524 120.639C43.226 120.637 43.2975 120.664 43.3517 120.714C43.4042 120.762 43.438 120.826 43.4471 120.897C43.4563 120.967 43.4401 121.038 43.4016 121.098Z" fill="black"/>
<path d="M70.324 44.0596C74.551 45.2559 75.9567 46.2429 79.087 50.7839C81.4348 54.1934 87.4065 64.0332 87.4065 64.0332C87.4065 64.0332 88.4483 76.2157 85.8213 76.136C84.3196 76.1006 82.8901 75.4841 81.8336 74.4163C78.2048 70.598 72.1284 61.9546 72.1284 61.9546L70.324 44.0596Z" fill="#FFBDA7"/>
<path d="M70.1794 43.6808C72.592 43.9898 75.5977 45.1014 77.4969 47.6087C79.3961 50.116 84.6698 58.8392 84.6698 58.8392C84.6698 58.8392 84.5253 61.4561 81.4049 64.5815C78.2845 67.7069 75.4881 67.7069 75.4881 67.7069L67.7568 56.1026L70.1794 43.6808Z" fill="#455A64"/>
<path d="M87.0426 63.4401C85.3976 64.8109 82.7907 71.6698 82.7907 71.6698C82.7907 71.6698 81.9682 68.7388 83.0748 66.077C83.763 64.4499 84.7466 62.9643 85.9759 61.6954L87.0426 63.4401Z" fill="#F0997A"/>
<path d="M111.343 55.8982C111.901 54.9561 113.337 55.4396 114.104 54.8315C114.216 54.7499 114.303 54.6399 114.357 54.513C114.411 54.3861 114.43 54.247 114.411 54.1103C114.393 53.9736 114.338 53.8444 114.253 53.7362C114.167 53.628 114.054 53.5449 113.925 53.4956C113.342 53.1915 112.649 53.3361 112.021 53.2862C111.287 53.2091 110.578 52.98 109.937 52.6133C108.576 51.8806 106.842 51.2924 105.396 52.1846C105.724 52.3457 106.035 52.5394 106.323 52.7628C107.998 53.8096 109.673 54.8415 111.343 55.8982Z" fill="#F0997A"/>
<path d="M117.065 55.8733L116.502 56.0727C116.263 56.1624 116.004 56.2421 115.784 56.3368C115.67 56.3817 115.56 56.4316 115.445 56.4864C115.331 56.5412 115.166 56.6758 115.121 56.6658C114.573 56.5113 113.905 56.0976 112.973 56.1674C112.041 56.2372 111.821 56.3917 110.645 55.3499C109.848 54.652 108.915 53.4358 107.839 52.7927C106.762 52.1497 105.636 51.741 104.349 52.718C103.063 53.695 102.356 54.3878 100.99 55.315C99.953 56.0178 99.2102 56.5462 93.8916 59.5221C89.9836 61.7053 86.7685 62.9615 84.1465 66.5006C83.0898 67.9312 80.8268 73.3097 81.8636 74.4312C83.359 76.0213 87.0327 77.422 91.2098 74.3166C93.1229 72.9018 94.9412 71.3632 96.6531 69.7107C98.3778 68.0808 99.1454 67.2184 101.593 64.8756C104.04 62.5328 105.466 61.3165 106.847 60.6885C108.028 60.1501 109.504 60.4143 110.501 60.5589C111.801 60.798 113.136 60.776 114.428 60.4941C115.744 60.2897 116.607 59.9956 117.514 59.8261C118.421 59.6566 119.214 59.0934 120.101 58.6597L121.636 57.9319C121.81 57.8689 121.967 57.7665 122.095 57.6329C122.155 57.5431 122.07 57.3188 122.04 57.2141C122.006 57.108 121.948 57.0109 121.871 56.93C122.059 56.9259 122.247 56.8991 122.429 56.8503C122.598 56.8154 122.738 56.7755 122.927 56.7556C123.117 56.7356 123.187 56.6808 123.202 56.5562C123.204 56.4819 123.179 56.4093 123.132 56.3518C122.953 56.0986 122.701 55.907 122.409 55.8035C122.009 55.6992 121.596 55.6522 121.183 55.6639C121.123 55.6628 121.064 55.651 121.008 55.629C120.94 55.5864 120.876 55.5362 120.819 55.4795C120.72 55.4014 120.606 55.3439 120.485 55.3105C120.363 55.2771 120.236 55.2685 120.111 55.2851C119.662 55.3527 119.218 55.4459 118.78 55.5642C118.511 55.6191 118.232 55.629 117.963 55.6739C117.659 55.7172 117.359 55.7839 117.065 55.8733Z" fill="#FFBDA7"/>
<path d="M112.734 56.5812C112.549 56.5014 112.37 56.4067 112.18 56.3219L112.031 56.2472C112.417 56.2751 112.806 56.2751 113.192 56.2472C113.87 56.2173 114.403 56.5413 115.042 56.7456C115.124 56.7547 115.207 56.7391 115.281 56.7008C116.307 56.1354 117.432 55.7716 118.596 55.6291C119.323 55.5394 120.091 55.0409 120.789 55.4845C120.151 54.986 119.293 55.4845 118.566 55.5144C117.402 55.6169 116.269 55.94 115.226 56.4665L115.126 56.5263C114.498 56.2396 113.822 56.0707 113.132 56.0279C112.764 56.0597 112.394 56.0597 112.026 56.0279C110.61 55.5294 109.793 54.034 108.601 53.1666C107.405 52.1996 105.61 51.5516 104.349 52.728C106.039 51.5965 107.495 52.4887 108.791 53.6751C108.348 53.3145 107.798 53.1095 107.227 53.0914C106.656 53.0734 106.095 53.2435 105.63 53.5754C105.295 53.7949 105.006 54.0797 104.783 54.4128C105.1 54.1594 105.433 53.9263 105.78 53.715C106.107 53.5608 106.455 53.4534 106.812 53.3959C107.527 53.3154 108.25 53.4471 108.89 53.7748C109.583 54.4228 110.231 55.1456 110.844 55.669C111.122 55.8954 111.435 56.074 111.772 56.1973C112.043 56.4305 112.345 56.625 112.669 56.7756C113.05 56.9558 113.469 57.043 113.89 57.0298C113.494 56.91 113.107 56.7601 112.734 56.5812ZM115.38 57.7276C115.523 57.7202 115.666 57.7202 115.809 57.7276C115.948 57.7316 116.086 57.7433 116.223 57.7625C116.362 57.7625 116.497 57.8124 116.627 57.8423C116.755 57.8763 116.882 57.9179 117.005 57.9669L117.075 57.9968L117.165 57.9469C117.464 57.7719 117.791 57.6489 118.132 57.5831C118.47 57.5168 118.815 57.4967 119.159 57.5233H119.224L119.264 57.4983C119.548 57.318 119.848 57.1645 120.161 57.0397C120.503 56.9265 120.862 56.8693 121.223 56.8703C121.165 56.8491 121.104 56.8373 121.043 56.8354C120.939 56.8254 120.833 56.8254 120.729 56.8354C120.309 56.8667 119.897 56.9713 119.513 57.1444C119.415 57.205 119.309 57.252 119.199 57.284C119.086 57.2989 118.972 57.2989 118.86 57.284C118.375 57.2415 117.888 57.3366 117.454 57.5581C117.358 57.6188 117.254 57.6657 117.145 57.6977C116.997 57.7176 116.846 57.7074 116.701 57.6678C116.266 57.5449 115.803 57.5659 115.38 57.7276ZM120.405 55.7686C120.246 55.8185 120.096 55.8933 119.936 55.9381C119.612 56.0278 119.269 55.9979 118.94 56.0627C118.591 56.1329 118.271 56.3066 118.022 56.5612C118.008 56.5772 117.991 56.5906 117.972 56.6011C117.868 56.6609 117.678 56.6011 117.574 56.5612C117.469 56.5213 117.255 56.4964 117.075 56.4715C116.57 56.4185 116.06 56.4764 115.58 56.641C115.779 56.641 115.979 56.5911 116.173 56.5861C116.367 56.5737 116.562 56.5737 116.756 56.5861C116.949 56.5968 117.14 56.6201 117.329 56.6559C117.511 56.6918 117.69 56.7435 117.863 56.8104L117.958 56.8503L118.037 56.7805C118.286 56.5622 118.573 56.3931 118.885 56.2821C119.182 56.1851 119.49 56.1248 119.802 56.1026L119.981 56.0677C120.038 56.0513 120.093 56.0296 120.146 56.0029C120.392 55.8747 120.651 55.7728 120.918 55.6989C120.839 55.6989 120.744 55.6989 120.664 55.6989C120.576 55.7168 120.49 55.7401 120.405 55.7686Z" fill="#F0997A"/>
<path d="M53.6153 43.9997C49.3982 44.6726 46.4722 45.3356 44.4385 45.7892C44.4385 45.7892 39.3591 49.418 40.8096 64.6064C41.014 66.7548 41.5075 72.8959 41.4626 78.065C41.4327 81.7387 41.5174 86.7034 41.348 89.2656C41.348 89.2656 49.8518 94.2054 64.0482 92.6751C75.1989 91.4738 76.8887 87.4113 76.8887 87.4113C76.8887 87.4113 77.108 69.3169 76.5797 60.823C75.8868 49.6623 73.2998 47.1949 70.1793 43.7056C67.9085 43.4576 65.6243 43.3544 63.3404 43.3966C59.4573 43.3766 57.8323 43.3018 53.6153 43.9997Z" fill="#F0F0F0"/>
<path d="M72.5871 54.5024C73.0582 56.9137 73.3068 59.3632 73.3298 61.8199C67.8118 63.7839 61.0725 65.2743 54.5724 65.0101C54.5326 62.2636 54.3282 59.9806 54.074 57.3836C58.635 57.5381 66.8946 56.5262 72.5871 54.5024Z" fill="#E0E0E0"/>
<path d="M50.5347 21.0154C50.5347 21.0154 48.7202 21.2995 47.6834 23.5825C47.185 24.734 46.8709 27.5154 48.9296 33.1082C49.7249 35.2989 50.8567 37.3523 52.2843 39.1945C52.7221 39.802 53.3741 40.2206 54.1087 40.3659L53.665 35.9694L53.2812 32.1711C53.2812 32.1711 55.8384 31.2738 56.272 27.7397C56.606 24.8935 55.3798 23.8317 55.3798 23.8317L50.5347 21.0154Z" fill="#263238"/>
<path d="M47.7981 23.2037C46.9656 18.8621 55.2751 12.5066 60.489 15.5423C62.1938 13.0948 66.4308 14.0469 66.8944 16.5392C68.3898 15.7865 71.3507 19.211 70.6977 21.0753C72.1931 25.1328 70.1693 26.8126 68.1605 26.8126C63.2356 26.8126 57.9618 26.6282 53.0021 26.9672L47.7981 23.2037Z" fill="#263238"/>
<path d="M68.3399 20.831C69.3867 21.7432 70.902 23.8218 71.3756 31.6477C71.6996 36.9664 70.4185 39.3441 68.4944 40.3161C66.8835 41.1085 65.1106 41.5163 63.3154 41.5074L63.3901 44.6926C68.1106 48.9844 55.4146 50.2805 52.2145 44.6228L52.1497 35.8947C51.8207 36.5477 50.1159 37.0063 48.8249 35.78C46.7812 33.846 47.1102 30.9848 48.5707 29.8831C50.0312 28.7815 52.2394 28.966 53.0868 31.0645C54.8065 31.6178 56.0078 29.2551 55.3598 22.8498C62.2736 24.4249 63.9235 18.9318 68.3399 20.831Z" fill="#FFBDA7"/>
<path d="M63.3154 41.5076C57.7375 41.3331 55.1006 38.756 54.3978 36.7223C54.3978 36.7223 54.2283 40.2116 58.1363 41.9014C59.7552 42.6323 61.5274 42.959 63.3004 42.8534L63.3154 41.5076Z" fill="#F0997A"/>
<path d="M65.5285 34.8629L61.8399 33.866C61.7614 34.1017 61.7319 34.3511 61.7532 34.5987C61.7745 34.8462 61.8461 35.0869 61.9638 35.3058C62.0814 35.5247 62.2425 35.7173 62.4372 35.8717C62.6319 36.0261 62.8561 36.1391 63.096 36.2038C63.596 36.3341 64.127 36.2676 64.5795 36.0182C65.0321 35.7687 65.3717 35.3553 65.5285 34.8629Z" fill="#B16668"/>
<path d="M63.9235 36.2187C63.648 36.2652 63.3657 36.2516 63.096 36.1788C62.7638 36.0885 62.4642 35.9056 62.232 35.6514C61.9999 35.3972 61.8449 35.0822 61.785 34.7432C62.2517 34.7316 62.71 34.8681 63.0942 35.1332C63.4784 35.3983 63.7687 35.7783 63.9235 36.2187Z" fill="#F28F8F"/>
<path d="M60.0354 28.5821C60.0575 28.7873 60.14 28.9813 60.2725 29.1395C60.405 29.2977 60.5815 29.413 60.7796 29.4708C60.9777 29.5285 61.1885 29.5262 61.3852 29.464C61.582 29.4018 61.7558 29.2826 61.8848 29.1214C62.0137 28.9603 62.0918 28.7645 62.1093 28.5589C62.1268 28.3533 62.0828 28.1471 61.983 27.9665C61.8831 27.7859 61.7319 27.6391 61.5484 27.5445C61.365 27.45 61.1576 27.4121 60.9526 27.4356C60.817 27.4505 60.6857 27.492 60.5662 27.5577C60.4467 27.6234 60.3413 27.712 60.2561 27.8185C60.1709 27.925 60.1076 28.0473 60.0697 28.1783C60.0318 28.3093 60.0202 28.4466 60.0354 28.5821Z" fill="#263238"/>
<path d="M67.3629 27.65C67.3836 27.8548 67.4644 28.0489 67.5952 28.2078C67.7261 28.3667 67.9011 28.4833 68.0981 28.5428C68.2951 28.6024 68.5054 28.6022 68.7023 28.5424C68.8993 28.4825 69.0741 28.3657 69.2047 28.2066C69.3353 28.0475 69.4158 27.8533 69.4362 27.6485C69.4565 27.4437 69.4157 27.2374 69.3189 27.0557C69.2221 26.8741 69.0737 26.7252 68.8924 26.6278C68.711 26.5304 68.5049 26.4889 68.3 26.5085C68.1634 26.5216 68.0308 26.5616 67.9096 26.6261C67.7885 26.6906 67.6813 26.7785 67.5943 26.8845C67.5072 26.9906 67.4419 27.1128 67.4022 27.2442C67.3625 27.3756 67.3492 27.5135 67.3629 27.65Z" fill="#263238"/>
<path d="M64.2076 26.3739L65.384 32.7842L68.5244 31.0097L64.2076 26.3739Z" fill="#F0997A"/>
<path d="M69.4216 25.397L66.9542 24.8487C66.9802 24.6847 67.0395 24.5278 67.1284 24.3875C67.2174 24.2473 67.3341 24.1268 67.4714 24.0334C67.6087 23.94 67.7637 23.8757 67.9268 23.8445C68.0899 23.8132 68.2576 23.8157 68.4197 23.8518C68.755 23.9283 69.0473 24.1325 69.2344 24.421C69.4215 24.7096 69.4886 25.0597 69.4216 25.397Z" fill="#263238"/>
<path d="M58.9936 26.7827L61.2118 25.5116C61.1351 25.3638 61.0293 25.2331 60.9007 25.1274C60.772 25.0217 60.6233 24.9432 60.4635 24.8966C60.3037 24.85 60.1361 24.8363 59.9708 24.8563C59.8056 24.8764 59.6461 24.9297 59.502 25.0131C59.2056 25.1857 58.9872 25.4661 58.8925 25.7958C58.7977 26.1255 58.834 26.479 58.9936 26.7827Z" fill="#263238"/>
<path d="M69.322 20.6068C59.1383 20.841 54.8963 25.5914 54.8963 25.5914C53.7399 26.4139 51.9055 27.9442 51.2824 29.33C50.6838 29.1862 50.0565 29.2174 49.4751 29.4197C48.8936 29.6221 48.3825 29.9871 48.0025 30.4714C47.656 29.8132 47.4075 29.1079 47.2648 28.3779C46.4672 24.9733 46.2329 17.91 54.2433 15.0339C61.6156 12.407 66.8944 13.4936 68.5942 17.4315C68.939 18.4639 69.1828 19.5273 69.322 20.6068Z" fill="#455A64"/>
<path d="M54.657 24.6343C55.6302 22.3432 57.2001 20.355 59.203 18.877C61.4411 17.1224 66.4457 16.2152 68.7038 15.8862C72.6517 15.298 73.7284 16.0058 73.8679 16.594C73.9028 16.7336 74.0623 17.3866 74.1022 17.5311C74.1478 17.6602 74.1478 17.8009 74.1022 17.9299C73.6586 18.9269 70.7226 21.0802 70.7226 21.0802C65.5834 20.492 59.5619 22.3364 54.9212 25.5964L54.657 24.6343Z" fill="#3D64AF"/>
<path d="M54.8962 25.5864C59.537 22.3264 65.6831 20.6815 70.6977 21.0703C70.6977 21.0703 73.6336 18.9418 74.0773 17.92C74.3165 17.3567 73.828 16.1006 68.9431 16.8333C66.685 17.1673 61.6804 18.0745 59.4722 19.8241C57.4589 21.301 55.8787 23.2909 54.8962 25.5864Z" fill="#37474F"/>
<path d="M44.2241 46.9008C42.2303 47.2397 37.2456 48.0622 35.3115 51.9453C32.8192 56.9997 28.961 65.5435 26.4886 71.884C24.9932 75.6773 24.9035 76.8686 26.4438 80.2283C27.9392 83.4434 35.2816 94.1854 38.0282 97.3856C40.0669 99.7483 43.935 103.676 45.3257 104.524C45.3257 104.524 47.6586 103.198 48.4611 95.2322C48.4611 95.2322 48.5907 94.3649 50.6593 95.0877C52.0999 95.5861 53.9243 95.6958 54.7916 94.8633C55.659 94.0309 53.6352 93.5823 52.6084 92.9492C51.1209 91.9011 49.4177 91.1994 47.6237 90.8955C45.0665 90.4619 43.1026 90.0681 41.6421 86.843C38.8855 80.7068 37.3403 77.2076 37.3403 77.2076L44.5631 61.8099C46.9657 56.8352 46.3227 51.4169 44.2241 46.9008Z" fill="#FFBDA7"/>
<path d="M44.4384 45.7643C38.2823 47.3095 36.0592 48.9096 33.3525 55.2003C31.5281 59.4323 28.3678 66.7747 28.3678 66.7747C28.3678 66.7747 29.7286 69.267 33.4372 70.6578C38.6711 72.6018 40.4158 71.7195 40.4158 71.7195C40.4158 71.7195 43.0826 65.8824 45.2908 61.2168C48.0972 55.3199 46.7264 48.3314 44.4384 45.7643Z" fill="#455A64"/>
<path d="M37.3652 77.1878C35.7601 75.0793 32.3157 74.9347 32.3157 74.9347C33.2711 74.7343 34.2591 74.7497 35.2078 74.98C36.1564 75.2103 37.0416 75.6495 37.7988 76.2656L37.3652 77.1878Z" fill="#F0997A"/>
</svg>
