<svg width="24" height="24" viewBox="0 0 24 24" fill="none" xmlns="http://www.w3.org/2000/svg">
<path d="M12 0C5.388 0 0 5.388 0 12C0 18.612 5.388 24 12 24C18.612 24 24 18.612 24 12C24 5.388 18.612 0 12 0ZM15.348 12.636L11.112 16.872C10.932 17.052 10.704 17.136 10.476 17.136C10.248 17.136 10.02 17.052 9.84 16.872C9.492 16.524 9.492 15.948 9.84 15.6L13.44 12L9.84 8.4C9.492 8.052 9.492 7.476 9.84 7.128C10.188 6.78 10.764 6.78 11.112 7.128L15.348 11.364C15.708 11.712 15.708 12.288 15.348 12.636Z" fill="white"/>
</svg>
