<svg width="28" height="27" viewBox="0 0 28 27" fill="none" xmlns="http://www.w3.org/2000/svg">
<path d="M27.3034 0.54639C27.1626 0.375556 26.9858 0.237978 26.7856 0.143515C26.5854 0.0490524 26.3667 4.33179e-05 26.1454 0H5.14538C4.74755 0 4.36602 0.158035 4.08472 0.43934C3.80341 0.720644 3.64538 1.10218 3.64538 1.5C3.64538 1.89782 3.80341 2.27936 4.08472 2.56066C4.36602 2.84196 4.74755 3 5.14538 3H24.3246L23.1532 9H3.64538C3.24755 9 2.86602 9.15804 2.58472 9.43934C2.30341 9.72064 2.14538 10.1022 2.14538 10.5C2.14538 10.8978 2.30341 11.2794 2.58472 11.5607C2.86602 11.842 3.24755 12 3.64538 12H22.5675L20.8236 20.9326L11.3387 23.9275L3.2235 21.3787L3.52892 19.7812C3.60351 19.3904 3.51979 18.986 3.29618 18.6569C3.07256 18.3278 2.72737 18.101 2.33654 18.0264C1.94571 17.9518 1.54125 18.0355 1.21215 18.2591C0.883045 18.4827 0.656251 18.8279 0.581659 19.2188L0.0264791 22.1287C-0.0422959 22.49 0.0239812 22.8639 0.212729 23.1796C0.401477 23.4952 0.699555 23.7306 1.05038 23.841L10.8905 26.9311C11.184 27.0232 11.4987 27.0229 11.7921 26.9304L22.577 23.5254C22.8341 23.4441 23.0645 23.295 23.244 23.0938C23.4236 22.8926 23.5456 22.6468 23.5973 22.3821L27.6176 1.78712C27.6599 1.56994 27.6537 1.34607 27.5994 1.13156C27.5451 0.91706 27.444 0.717227 27.3034 0.54639Z" fill="#3D64AF"/>
</svg>
