<svg width="29" height="38" viewBox="0 0 29 38" fill="none" xmlns="http://www.w3.org/2000/svg">
<path d="M12.9999 0.56604H18.9889V28.2146C15.9166 28.796 13.6607 29.0289 11.2111 29.0289C3.89873 29.0289 0.0876465 25.732 0.0876465 19.4093C0.0876465 13.3195 4.13225 9.36364 10.3945 9.36364C11.3668 9.36364 12.1055 9.44127 12.9999 9.67414V0.56604ZM12.9999 14.4824C12.3488 14.2631 11.6646 14.158 10.9776 14.1719C7.94334 14.1719 6.19424 16.0334 6.19424 19.2921C6.19424 22.4733 7.86703 24.2176 10.9394 24.2176C11.6003 24.2176 12.1452 24.1795 12.9999 24.0623V14.4824ZM28.5189 9.78982V23.6361C28.5189 28.4063 28.1694 30.6955 27.1194 32.6727C26.1471 34.5738 24.8635 35.7762 22.2185 37.0943L16.6568 34.4566C19.3018 33.2161 20.5854 32.1293 21.402 30.4611C22.2582 28.7549 22.5299 26.7762 22.5299 21.5798V9.7883L28.5189 9.78982ZM22.5299 0.598004H28.5189V6.72588H22.5299V0.598004Z" fill="#3D64AF"/>
</svg>
