<svg width="42" height="40" viewBox="0 0 42 40" fill="none" xmlns="http://www.w3.org/2000/svg">
<path d="M20.5712 0C9.2056 0 0 9.17064 0 20.4816C0 29.5328 5.89364 37.2083 14.0655 39.9135C15.0941 40.1064 15.4712 39.4732 15.4712 38.9287C15.4712 38.4423 15.4541 37.1536 15.4455 35.4468C9.72331 36.6826 8.51647 32.6989 8.51647 32.6989C7.58048 30.335 6.22793 29.7035 6.22793 29.7035C4.36452 28.4336 6.37192 28.4592 6.37192 28.4592C8.43761 28.6026 9.52274 30.5688 9.52274 30.5688C11.357 33.7008 14.3381 32.7962 15.5141 32.2722C15.6992 30.9477 16.229 30.0448 16.8169 29.5328C12.2484 29.0207 7.44677 27.2593 7.44677 19.4114C7.44677 17.1755 8.2439 15.3493 9.56389 13.9155C9.33246 13.3984 8.63818 11.3161 9.74388 8.49475C9.74388 8.49475 11.4667 7.94516 15.401 10.5941C17.0467 10.1384 18.7952 9.9131 20.5438 9.90286C22.2923 9.9131 24.0409 10.1384 25.6866 10.5941C29.5951 7.94516 31.3179 8.49475 31.3179 8.49475C32.4236 11.3161 31.7293 13.3984 31.5236 13.9155C32.835 15.3493 33.6322 17.1755 33.6322 19.4114C33.6322 27.2798 28.8237 29.0122 24.2466 29.5157C24.9666 30.1302 25.6351 31.3864 25.6351 33.3048C25.6351 36.0459 25.6094 38.2477 25.6094 38.9133C25.6094 39.451 25.9694 40.091 27.0237 39.8862C35.2539 37.1997 41.1424 29.5191 41.1424 20.4816C41.1424 9.17064 31.9316 0 20.5712 0Z" fill="#3D64AF"/>
</svg>
