<svg width="35" height="37" viewBox="0 0 35 37" fill="none" xmlns="http://www.w3.org/2000/svg">
<path d="M33.8247 0.572972C33.6596 0.392484 33.4588 0.248331 33.235 0.149686C33.0112 0.0510408 32.7694 6.39569e-05 32.5248 0H1.76192C1.51737 9.2767e-05 1.27551 0.0510745 1.05173 0.149703C0.827951 0.248332 0.627143 0.392449 0.462077 0.57289C0.297011 0.753331 0.171299 0.966147 0.0929374 1.1978C0.0145756 1.42946 -0.0147218 1.67489 0.00690778 1.91849L2.685 31.8709C2.71677 32.2278 2.85667 32.5665 3.08602 32.8418C3.31538 33.1171 3.62326 33.3159 3.96857 33.4117L16.6546 36.9355C16.8081 36.9783 16.9668 37 17.1261 37C17.2851 36.9999 17.4434 36.9784 17.5967 36.9363L30.3172 33.4125C30.6627 33.3167 30.9707 33.1177 31.2002 32.8423C31.4297 32.5668 31.5697 32.228 31.6016 31.8709L34.2797 1.91849C34.3014 1.67491 34.2721 1.42949 34.1938 1.19784C34.1154 0.966191 33.9897 0.753388 33.8247 0.572972ZM28.2 30.3421L17.127 33.4099L6.08671 30.343L3.68818 3.52381H30.5985L28.2 30.3421ZM9.77827 19.381H21.9266L21.3502 25.1441L16.8259 26.7598L11.252 24.769C11.034 24.6909 10.8027 24.6565 10.5714 24.6677C10.3401 24.679 10.1132 24.7358 9.90386 24.8348C9.6945 24.9338 9.5067 25.0731 9.35121 25.2448C9.19573 25.4164 9.0756 25.617 8.9977 25.8351C8.9198 26.0532 8.88565 26.2845 8.89721 26.5158C8.90877 26.7471 8.96582 26.9739 9.06508 27.1831C9.16434 27.3924 9.30388 27.58 9.47571 27.7353C9.64754 27.8906 9.84829 28.0105 10.0665 28.0881L16.2332 30.2905C16.6165 30.427 17.0353 30.427 17.4187 30.2905L23.5853 28.0881C23.8993 27.9758 24.1751 27.7768 24.3805 27.5141C24.5859 27.2515 24.7126 26.9359 24.7459 26.6041L25.6268 17.7946C25.6512 17.5496 25.624 17.3023 25.5469 17.0685C25.4699 16.8347 25.3448 16.6197 25.1796 16.4372C25.0145 16.2547 24.8129 16.1088 24.588 16.0089C24.363 15.909 24.1197 15.8573 23.8735 15.8571H11.3724L10.8442 10.5714H24.7544C25.2217 10.5714 25.6699 10.3858 26.0003 10.0554C26.3307 9.72496 26.5163 9.27681 26.5163 8.80952C26.5163 8.34224 26.3307 7.89409 26.0003 7.56367C25.6699 7.23325 25.2217 7.04762 24.7544 7.04762H8.89729C8.65115 7.04777 8.40777 7.09946 8.18282 7.19936C7.95786 7.29926 7.75632 7.44516 7.59117 7.62766C7.42601 7.81016 7.30089 8.02522 7.22388 8.259C7.14686 8.49278 7.11965 8.7401 7.144 8.98503L8.02495 17.7946C8.06852 18.2293 8.27204 18.6323 8.59603 18.9255C8.92002 19.2186 9.34135 19.3809 9.77827 19.381Z" fill="#3D64AF"/>
</svg>
