<svg width="30" height="30" viewBox="0 0 30 30" fill="none" xmlns="http://www.w3.org/2000/svg">
<path d="M14.7497 0C10.7427 0 10.2425 0.0184371 8.66915 0.0884983C7.0983 0.162247 6.02895 0.409305 5.08865 0.77436C4.11886 1.15048 3.29533 1.65566 2.47549 2.47549C1.65566 3.29533 1.14925 4.11763 0.77436 5.08865C0.409305 6.02895 0.161018 7.0983 0.0884983 8.66915C0.0147497 10.2425 0 10.7427 0 14.7497C0 18.7567 0.0184371 19.257 0.0884983 20.8303C0.162247 22.3999 0.409305 23.4705 0.77436 24.4108C1.14469 25.3952 1.72522 26.2869 2.47549 27.0239C3.21209 27.7747 4.10398 28.3554 5.08865 28.7251C6.03018 29.0889 7.09953 29.3384 8.66915 29.4109C10.2425 29.4847 10.7427 29.4994 14.7497 29.4994C18.7567 29.4994 19.257 29.481 20.8303 29.4109C22.3999 29.3372 23.4705 29.0889 24.4108 28.7251C25.3949 28.3543 26.2866 27.7738 27.0239 27.0239C27.775 26.2876 28.3556 25.3956 28.7251 24.4108C29.0889 23.4705 29.3384 22.3999 29.4109 20.8303C29.4847 19.257 29.4994 18.7567 29.4994 14.7497C29.4994 10.7427 29.481 10.2425 29.4109 8.66915C29.3372 7.09953 29.0889 6.02772 28.7251 5.08865C28.3546 4.10438 27.7741 3.21265 27.0239 2.47549C26.2879 1.72405 25.3958 1.14334 24.4108 0.77436C23.4705 0.409305 22.3999 0.161018 20.8303 0.0884983C19.257 0.0147497 18.7567 0 14.7497 0ZM14.7497 2.65495C18.6867 2.65495 19.1562 2.67462 20.7111 2.74222C22.1492 2.80982 22.9297 3.04828 23.4484 3.25231C24.1391 3.51904 24.6283 3.83861 25.147 4.35363C25.6621 4.86987 25.9816 5.36029 26.2484 6.05107C26.4499 6.56977 26.6908 7.35028 26.756 8.78837C26.8261 10.3445 26.842 10.8115 26.842 14.7497C26.842 18.6879 26.8236 19.1562 26.7511 20.7111C26.6761 22.1492 26.4364 22.9297 26.2336 23.4484C25.9937 24.0885 25.6165 24.6683 25.1286 25.147C24.6519 25.6354 24.0725 26.0116 23.4324 26.2484C22.9161 26.4499 22.1234 26.6908 20.6853 26.756C19.1193 26.8261 18.6584 26.842 14.7128 26.842C10.7661 26.842 10.3051 26.8236 8.74044 26.7511C7.30111 26.6761 6.50831 26.4364 5.99207 26.2336C5.35157 25.9966 4.77237 25.619 4.29709 25.1286C3.80368 24.6551 3.42527 24.0748 3.19086 23.4324C2.98805 22.9161 2.74959 22.1234 2.67462 20.6853C2.6193 19.1365 2.59964 18.6584 2.59964 14.7313C2.59964 10.8029 2.6193 10.3236 2.67462 8.75642C2.74959 7.31832 2.98805 6.52675 3.19086 6.01051C3.44898 5.3099 3.77962 4.83053 4.29709 4.31306C4.8121 3.79805 5.29269 3.46618 5.99207 3.20929C6.50831 3.00526 7.2839 2.76557 8.722 2.69182C10.2892 2.63651 10.7501 2.61808 14.6944 2.61808L14.7497 2.65495ZM14.7497 7.17574C13.7551 7.17574 12.7702 7.37165 11.8513 7.75227C10.9324 8.1329 10.0974 8.6908 9.39411 9.39411C8.6908 10.0974 8.1329 10.9324 7.75227 11.8513C7.37165 12.7702 7.17574 13.7551 7.17574 14.7497C7.17574 15.7444 7.37165 16.7292 7.75227 17.6482C8.1329 18.5671 8.6908 19.402 9.39411 20.1053C10.0974 20.8086 10.9324 21.3665 11.8513 21.7472C12.7702 22.1278 13.7551 22.3237 14.7497 22.3237C16.7585 22.3237 18.6849 21.5257 20.1053 20.1053C21.5257 18.6849 22.3237 16.7585 22.3237 14.7497C22.3237 12.741 21.5257 10.8145 20.1053 9.39411C18.6849 7.97371 16.7585 7.17574 14.7497 7.17574ZM14.7497 19.6663C12.0333 19.6663 9.83315 17.4661 9.83315 14.7497C9.83315 12.0333 12.0333 9.83315 14.7497 9.83315C17.4661 9.83315 19.6663 12.0333 19.6663 14.7497C19.6663 17.4661 17.4661 19.6663 14.7497 19.6663ZM24.3936 6.87706C24.3765 7.33507 24.1826 7.76863 23.8525 8.08662C23.5224 8.40461 23.0819 8.58228 22.6236 8.58228C22.1653 8.58228 21.7248 8.40461 21.3947 8.08662C21.0647 7.76863 20.8707 7.33507 20.8536 6.87706C20.8536 6.40763 21.0401 5.95744 21.3721 5.6255C21.704 5.29357 22.1542 5.10709 22.6236 5.10709C23.093 5.10709 23.5432 5.29357 23.8752 5.6255C24.2071 5.95744 24.3936 6.40763 24.3936 6.87706Z" fill="white"/>
</svg>
