<svg width="36" height="40" viewBox="0 0 36 40" fill="none" xmlns="http://www.w3.org/2000/svg">
<path d="M22.695 25.3085C21.2178 25.4525 19.7297 25.1815 18.3981 24.5261C18.0965 24.2848 17.8475 23.9842 17.6666 23.6428C17.4856 23.3015 17.3766 22.9267 17.3462 22.5416C17.3456 22.484 17.3335 22.427 17.3108 22.3741C17.288 22.3211 17.2549 22.2732 17.2135 22.2332C17.1721 22.1931 17.1232 22.1616 17.0695 22.1405C17.0159 22.1195 16.9586 22.1093 16.901 22.1105C16.279 22.103 15.6572 22.1047 15.0354 22.1097C14.9267 22.0986 14.818 22.1308 14.733 22.1993C14.6479 22.2678 14.5932 22.3671 14.5808 22.4757C14.5454 23.1513 14.6596 23.8265 14.9153 24.4529C15.1711 25.0793 15.562 25.6415 16.0602 26.0993C17.3179 27.0807 18.845 27.6551 20.4377 27.7459C22.0972 27.9384 23.7767 27.8671 25.4139 27.5346C26.6711 27.3001 27.8236 26.679 28.7108 25.7579C29.2012 25.1532 29.5299 24.4338 29.666 23.6672C29.8021 22.9006 29.7411 22.1121 29.4887 21.3755C29.2768 20.8563 28.9487 20.3926 28.5297 20.0199C28.1108 19.6471 27.612 19.3753 27.0716 19.2253C24.5555 18.3425 21.8376 18.4092 19.2725 17.7384C18.8272 17.5982 18.2831 17.4461 18.0846 16.9746C17.9699 16.6428 17.9621 16.2835 18.0622 15.947C18.1624 15.6106 18.3655 15.314 18.6429 15.0989C19.4483 14.6386 20.3654 14.4103 21.2925 14.4392C22.5509 14.3208 23.8194 14.5023 24.994 14.9688C25.3469 15.1763 25.6503 15.4582 25.8833 15.7948C26.1163 16.1314 26.2732 16.5147 26.3431 16.918C26.3465 17.037 26.3942 17.1505 26.477 17.2361C26.5597 17.3218 26.6714 17.3734 26.7903 17.3809C27.4078 17.3935 28.0255 17.3843 28.643 17.3851C28.7501 17.3979 28.8582 17.3717 28.9475 17.3111C29.0367 17.2506 29.1012 17.1599 29.1289 17.0556C29.1344 16.2227 28.9222 15.4028 28.5133 14.6771C28.1044 13.9515 27.513 13.3452 26.7977 12.9184C24.8234 12.0072 22.632 11.6719 20.4755 11.951C18.8956 12.0158 17.386 12.6222 16.2005 13.6686C15.6562 14.2552 15.2876 14.9829 15.1368 15.7688C14.9859 16.5546 15.0588 17.3671 15.3471 18.1136C15.5716 18.6136 15.9018 19.059 16.315 19.4191C16.7282 19.7792 17.2146 20.0454 17.7406 20.1994C20.2483 21.1052 22.9968 20.8145 25.5288 21.6155C26.0222 21.7829 26.5967 22.0388 26.7479 22.588C26.8292 22.9171 26.823 23.2618 26.7301 23.5878C26.6372 23.9138 26.4607 24.2099 26.2182 24.4467C25.1651 25.1009 23.9311 25.4028 22.695 25.3085ZM34.1262 8.71753C29.2302 5.94889 24.3331 3.18275 19.4348 0.419111C18.9433 0.144293 18.3896 0 17.8265 0C17.2634 0 16.7097 0.144293 16.2183 0.419111C11.339 3.17439 6.45958 5.92954 1.57985 8.68456C1.10514 8.94331 0.708305 9.32435 0.430507 9.78817C0.152708 10.252 0.00406596 10.7817 0 11.3223V27.97C0.00781326 28.5205 0.164459 29.0585 0.453324 29.5272C0.742189 29.9958 1.1525 30.3776 1.64075 30.6319C3.04245 31.3948 4.4043 32.2355 5.83139 32.9477C6.65507 33.3881 7.56993 33.6307 8.50357 33.6563C9.43721 33.682 10.364 33.49 11.2106 33.0956C11.8441 32.6987 12.3596 32.1393 12.7033 31.4755C13.0471 30.8117 13.2065 30.0678 13.165 29.3215C13.1759 23.8274 13.1666 18.333 13.1691 12.8388C13.1787 12.7787 13.1755 12.7173 13.1597 12.6586C13.1438 12.5998 13.1158 12.5451 13.0773 12.498C13.0389 12.4508 12.9909 12.4124 12.9366 12.385C12.8822 12.3577 12.8227 12.3422 12.762 12.3395C12.1384 12.3294 11.514 12.3336 10.8905 12.3378C10.8328 12.3326 10.7746 12.3397 10.7198 12.3586C10.665 12.3775 10.6148 12.4077 10.5725 12.4474C10.5302 12.487 10.4968 12.5351 10.4744 12.5886C10.452 12.6421 10.4412 12.6997 10.4426 12.7576C10.4342 18.2165 10.4443 23.6769 10.4376 29.1366C10.439 29.5134 10.3252 29.8817 10.1113 30.192C9.89747 30.5023 9.59385 30.7398 9.24118 30.8727C8.83507 30.9927 8.40821 31.0257 7.98848 30.9695C7.56874 30.9134 7.16558 30.7693 6.80533 30.5467C5.50677 29.8132 4.20824 29.0799 2.90972 28.3466C2.82368 28.3059 2.7522 28.2397 2.70491 28.1571C2.65762 28.0744 2.63679 27.9793 2.64522 27.8844C2.64522 22.3919 2.64522 16.8996 2.64522 11.4076C2.63619 11.3008 2.66116 11.1938 2.71655 11.102C2.77194 11.0102 2.85492 10.9383 2.95365 10.8965C7.81686 8.15744 12.6791 5.41555 17.5405 2.67079C17.6249 2.61312 17.7248 2.58234 17.8271 2.5825C17.9293 2.58265 18.0291 2.61372 18.1134 2.67163C22.9764 5.41151 27.8392 8.15234 32.7018 10.8941C32.8001 10.9371 32.8825 11.0097 32.9375 11.1018C32.9924 11.1939 33.0173 11.3008 33.0085 11.4077C33.0077 16.8992 33.0072 22.3912 33.0069 27.8837C33.0155 27.9789 32.9952 28.0745 32.9486 28.158C32.902 28.2415 32.8313 28.3091 32.7457 28.3518C27.957 31.0596 23.1657 33.7634 18.3719 36.4634C18.1429 36.591 17.8718 36.7962 17.6039 36.6417C16.3484 35.931 15.1082 35.1928 13.8569 34.4754C13.793 34.4265 13.7158 34.3977 13.6355 34.3929C13.5551 34.3881 13.4751 34.4074 13.4057 34.4483C12.8546 34.7712 12.2744 35.0419 11.6729 35.2569C11.4016 35.3667 11.068 35.398 10.8813 35.6496C11.1192 35.9085 11.4075 36.1161 11.7285 36.2598C13.1919 37.1071 14.6561 37.9537 16.1211 38.7996C16.6057 39.1039 17.1629 39.2727 17.7348 39.2886C18.3067 39.3045 18.8725 39.1669 19.3731 38.89C24.2531 36.1384 29.1328 33.3855 34.0123 30.6313C34.5002 30.3766 34.9102 29.9948 35.1991 29.5264C35.4881 29.058 35.6452 28.5203 35.6539 27.97V11.3223C35.6498 10.7924 35.5066 10.2728 35.2385 9.81563C34.9703 9.35848 34.5868 8.9798 34.1262 8.71753Z" fill="#3D64AF"/>
</svg>
