<svg width="43" height="38" viewBox="0 0 43 38" fill="none" xmlns="http://www.w3.org/2000/svg">
<path d="M21.5876 15.3318C21.1004 15.3318 20.618 15.4275 20.168 15.6134C19.7179 15.7993 19.3089 16.0718 18.9644 16.4154C18.62 16.7589 18.3467 17.1667 18.1603 17.6156C17.9739 18.0644 17.8779 18.5455 17.8779 19.0313C17.8779 19.5171 17.9739 19.9982 18.1603 20.4471C18.3467 20.8959 18.62 21.3037 18.9644 21.6473C19.3089 21.9908 19.7179 22.2633 20.168 22.4492C20.618 22.6351 21.1004 22.7308 21.5876 22.7308C22.0748 22.7308 22.5572 22.6351 23.0073 22.4492C23.4573 22.2633 23.8663 21.9908 24.2108 21.6473C24.5553 21.3037 24.8285 20.8959 25.0149 20.4471C25.2014 19.9982 25.2973 19.5171 25.2973 19.0313C25.2973 18.5455 25.2014 18.0644 25.0149 17.6156C24.8285 17.1667 24.5553 16.7589 24.2108 16.4154C23.8663 16.0718 23.4573 15.7993 23.0073 15.6134C22.5572 15.4275 22.0748 15.3318 21.5876 15.3318ZM11.1956 26.3906L10.377 26.183C4.27562 24.6455 0.775757 22.0356 0.775757 19.0244C0.775757 16.0132 4.27562 13.4033 10.377 11.8657L11.1956 11.6599L11.4262 12.4694C12.0443 14.5928 12.8349 16.6624 13.7901 18.6577L13.9653 19.0261L13.7901 19.3945C12.8333 21.3892 12.0427 23.4589 11.4262 25.5829L11.1956 26.3906ZM9.99714 13.7562C5.35957 15.0551 2.51355 17.0423 2.51355 19.0244C2.51355 21.0047 5.35957 22.992 9.99714 24.2926C10.5643 22.4938 11.2491 20.7339 12.0471 19.0244C11.2482 17.3153 10.5634 15.5553 9.99714 13.7562ZM31.9797 26.3906L31.749 25.5794C31.1315 23.4561 30.3403 21.387 29.3834 19.3928L29.2082 19.0244L29.3834 18.656C30.34 16.6611 31.1312 14.5914 31.749 12.4676L31.9797 11.6582L32.8 11.864C38.8996 13.4016 42.3995 16.0115 42.3995 19.0244C42.3995 22.0373 38.8996 24.6455 32.8 26.183L31.9797 26.3906ZM31.1281 19.0244C31.9606 20.8214 32.6491 22.5873 33.1781 24.2926C37.8174 22.992 40.6617 21.0047 40.6617 19.0244C40.6617 17.0423 37.8157 15.0568 33.1781 13.7562C32.6117 15.5553 31.9269 17.3152 31.1281 19.0244ZM9.985 13.7475L9.75434 12.9398C8.03909 6.91056 8.55939 2.59012 11.1817 1.08194C13.7537 -0.398561 17.8831 1.35002 22.2102 5.77943L22.7999 6.38304L22.2102 6.98666C20.6727 8.58063 19.2679 10.2968 18.0097 12.1183L17.7756 12.4521L17.368 12.4867C15.1549 12.6606 12.9595 13.0135 10.8036 13.5417L9.985 13.7475ZM13.2733 2.28053C12.8085 2.28053 12.3974 2.38084 12.0506 2.57974C10.3267 3.57078 10.0214 7.01606 11.2094 11.6651C13.0576 11.2551 14.9306 10.9656 16.8165 10.7986C17.9046 9.25564 19.0935 7.78579 20.3753 6.39861C17.6698 3.77141 15.1082 2.28053 13.2733 2.28053ZM29.9037 37.4978C29.9019 37.4978 29.9019 37.4978 29.9037 37.4978C27.4323 37.4978 24.2585 35.642 20.965 32.2694L20.3753 31.6657L20.965 31.0621C22.5021 29.4676 23.9064 27.7509 25.1638 25.9288L25.3979 25.595L25.8037 25.5604C28.018 25.3874 30.2146 25.0351 32.3716 24.5071L33.1902 24.3013L33.4226 25.1107C35.1344 31.1365 34.6158 35.4587 31.9935 36.9651C31.3566 37.3243 30.6353 37.5081 29.9037 37.4978ZM22.7999 31.6502C25.5054 34.2774 28.067 35.7683 29.9019 35.7683C30.365 35.7683 30.7795 35.6679 31.1246 35.469C32.8486 34.478 33.1555 31.031 31.9658 26.3819C30.1172 26.7925 28.2436 27.082 26.357 27.2484C25.2702 28.7925 24.0819 30.263 22.7999 31.6502ZM33.1902 13.7475L32.3716 13.5417C30.2148 13.012 28.0182 12.6591 25.8037 12.4867L25.3979 12.4521L25.1638 12.1183C23.907 10.2963 22.5027 8.57999 20.965 6.98666L20.3753 6.38304L20.965 5.77943C25.2904 1.35175 29.4181 -0.396831 31.9935 1.08194C34.6158 2.59012 35.1361 6.91056 33.4226 12.9381L33.1902 13.7475ZM26.357 10.7986C28.3376 10.9785 30.2193 11.2708 31.9658 11.6651C33.1555 7.01606 32.8486 3.57078 31.1246 2.57974C29.4111 1.59216 26.1905 3.10553 22.7999 6.39861C24.0811 7.78585 25.2694 9.2557 26.357 10.7986ZM13.2733 37.4978C12.541 37.5084 11.8192 37.3246 11.1817 36.9651C8.55939 35.4587 8.03909 31.1382 9.75434 25.1107L9.98327 24.3013L10.8019 24.5071C12.805 25.0104 15.0145 25.365 17.3663 25.5604L17.7738 25.595L18.0062 25.9288C19.2646 27.7506 20.6694 29.4674 22.2068 31.0621L22.7964 31.6657L22.2068 32.2694C18.915 35.642 15.7412 37.4978 13.2733 37.4978ZM11.2094 26.3819C10.0197 31.031 10.3267 34.478 12.0506 35.469C13.7624 36.4428 16.9813 34.9415 20.3753 31.6502C19.094 30.2619 17.9052 28.7916 16.8165 27.2484C14.9305 27.0821 13.0575 26.7927 11.2094 26.3819ZM21.5876 27.4681C20.1603 27.4681 18.693 27.4058 17.2241 27.2848L16.8165 27.2502L16.5824 26.9164C15.7515 25.7257 14.9704 24.5013 14.241 23.2463C13.5139 21.9902 12.8392 20.7046 12.2188 19.3928L12.0471 19.0244L12.2188 18.656C12.8391 17.3442 13.5138 16.0586 14.241 14.8025C14.959 13.5642 15.7482 12.3293 16.5824 11.1324L16.8165 10.7986L17.2241 10.764C20.1285 10.5184 23.0485 10.5184 25.9529 10.764L26.3587 10.7986L26.5911 11.1324C28.2546 13.5141 29.7148 16.0308 30.9564 18.656L31.1316 19.0244L30.9564 19.3928C29.7178 22.0195 28.2575 24.5365 26.5911 26.9164L26.3587 27.2502L25.9529 27.2848C24.4839 27.4058 23.015 27.4681 21.5876 27.4681ZM17.7773 25.5933C20.3441 25.7852 22.8311 25.7852 25.3997 25.5933C26.8336 23.5027 28.1068 21.3068 29.2082 19.0244C28.1088 16.7407 26.8349 14.5446 25.3979 12.4555C22.8614 12.2635 20.3139 12.2635 17.7773 12.4555C16.3397 14.5442 15.0658 16.7403 13.967 19.0244C15.0696 21.3065 16.3433 23.5023 17.7773 25.5933Z" fill="#3D64AF"/>
</svg>
