<svg width="39" height="38" viewBox="0 0 39 38" fill="none" xmlns="http://www.w3.org/2000/svg">
<path d="M26.9248 26.1805C28.3115 26.0612 29.387 24.8438 29.3168 23.3894C29.2434 21.9349 28.0482 20.7669 26.5913 20.7669H26.494C25.771 20.7926 25.0878 21.1036 24.5947 21.6315C24.1016 22.1593 23.8388 22.8609 23.8643 23.5819C23.9121 24.3442 24.2249 24.9648 24.6525 25.4167C22.9802 28.6598 20.4702 31.0436 16.6677 33.0471C14.1098 34.3806 11.4082 34.8835 8.77852 34.5254C6.57965 34.2167 4.85949 33.2364 3.80633 31.6642C2.22978 29.2788 2.08616 26.7057 3.39942 24.1309C4.35844 22.2707 5.79138 20.9117 6.7488 20.2433C6.45985 19.4446 6.23573 18.624 6.0786 17.7895C-0.999917 22.8451 -0.280257 29.7578 1.87074 33.0248C3.47283 35.4086 6.7488 36.9331 10.3343 36.9331C11.2902 36.9331 12.2954 36.8631 13.2752 36.6244C19.492 35.4325 24.2009 31.7136 26.9025 26.2299L26.9248 26.1805ZM35.4586 20.2195C31.755 15.8799 26.3025 13.4961 20.0856 13.4961H19.2718C18.8681 12.6146 17.9362 12.0656 16.8831 12.0656H16.8113C15.3065 12.0656 14.1337 13.3545 14.1832 14.8551C14.231 16.2841 15.4501 17.4776 16.9086 17.4776H17.0267C17.5437 17.4574 18.044 17.2893 18.4678 16.9933C18.8917 16.6973 19.2212 16.2859 19.417 15.8083H20.3027C23.9871 15.8083 27.4753 16.8809 30.6556 18.9782C33.0922 20.5759 34.8395 22.6733 35.8192 25.178C36.6777 27.2276 36.6314 29.2311 35.7474 30.902C34.3847 33.5229 32.0885 34.9073 29.0535 34.9073C27.1402 34.9073 25.2765 34.3106 24.319 33.8825C23.7462 34.3567 22.7888 35.1444 22.0946 35.6218C24.1978 36.5734 26.3264 37.1224 28.3817 37.1224C33.0443 37.1224 36.5086 34.5015 37.825 31.9729C39.258 29.1117 39.1399 24.2964 35.4809 20.1717L35.4586 20.2195ZM10.7396 27.0367C10.7707 27.7387 11.0707 28.4021 11.5778 28.8901C12.0849 29.378 12.7604 29.6533 13.4651 29.6592H13.5608C13.9202 29.6511 14.2742 29.5714 14.6022 29.4247C14.9301 29.278 15.2253 29.0674 15.4704 28.8052C15.7154 28.5431 15.9054 28.2346 16.0291 27.8981C16.1528 27.5615 16.2077 27.2037 16.1905 26.8457C16.1905 25.4151 14.9475 24.2248 13.489 24.2248H13.3917C13.2959 24.2248 13.1539 24.2248 13.0327 24.271C11.0492 20.9324 10.2115 17.3551 10.5242 13.4961C10.7141 10.5872 11.6715 8.05861 13.3917 5.96126C14.8262 4.17262 17.5277 3.28943 19.3692 3.24329C24.5329 3.14621 26.6855 9.56241 26.8514 12.1133L29.2418 12.8278C28.6912 5.00806 23.8164 0.90564 19.1538 0.90564C14.7783 0.90564 10.7396 4.07714 9.11202 8.72697C6.88922 14.9267 8.34768 20.8862 11.0731 25.6554C10.8354 25.9657 10.6918 26.5131 10.7396 27.0367Z" fill="#3D64AF"/>
</svg>
