<svg width="20" height="21" viewBox="0 0 20 21" fill="none" xmlns="http://www.w3.org/2000/svg">
<path d="M0.881858 0.563842L19.6587 9.94398C19.9616 10.0953 20.0862 10.4669 19.9369 10.774C19.8773 10.8965 19.7795 10.9957 19.6587 11.0561L0.882244 20.436C0.57933 20.5873 0.21277 20.4611 0.063508 20.154C-0.00175992 20.0197 -0.0168896 19.866 0.0209135 19.7213L1.88124 12.5991C1.94276 12.3636 2.13468 12.1864 2.37175 12.1464L10.7864 10.724C10.8895 10.7065 10.9747 10.6376 11.0157 10.5438L11.0377 10.4692C11.0615 10.3245 10.9822 10.1865 10.8542 10.1323L10.7864 10.1125L2.32424 8.68267C2.08708 8.6426 1.8951 8.46534 1.83363 8.22969L0.0204896 1.27844C-0.0658838 0.947476 0.128744 0.608187 0.455202 0.520621C0.597905 0.482344 0.749448 0.497695 0.881858 0.563842Z" fill="black"/>
</svg>
