<svg width="51" height="31" viewBox="0 0 51 31" fill="none" xmlns="http://www.w3.org/2000/svg">
<path d="M25.6315 0.547119C18.9717 0.547119 14.8093 3.86787 13.1443 10.5094C15.6418 7.18863 18.5554 5.94335 21.8853 6.77353C23.7854 7.24674 25.1424 8.6207 26.6471 10.1441C29.0966 12.6222 31.9291 15.4905 38.1186 15.4905C44.7784 15.4905 48.9407 12.1698 50.6057 5.52825C48.1083 8.849 45.1946 10.0943 41.8647 9.2641C39.9646 8.79089 38.6076 7.41693 37.103 5.89353C34.6555 3.41542 31.823 0.547119 25.6315 0.547119ZM13.1443 15.4905C6.48455 15.4905 2.32218 18.8113 0.657227 25.4528C3.15465 22.132 6.06831 20.8867 9.39821 21.7169C11.2983 22.1901 12.6553 23.5641 14.16 25.0875C16.6095 27.5656 19.442 30.4339 25.6315 30.4339C32.2912 30.4339 36.4536 27.1132 38.1186 20.4716C35.6211 23.7924 32.7075 25.0377 29.3776 24.2075C27.4775 23.7343 26.1205 22.3603 24.6158 20.8369C22.1684 18.3588 19.3359 15.4905 13.1443 15.4905Z" fill="#3D64AF"/>
</svg>
