<svg width="34" height="29" viewBox="0 0 34 29" fill="none" xmlns="http://www.w3.org/2000/svg">
<path d="M33.9337 3.95582C32.6676 4.51327 31.3263 4.88124 29.953 5.04788C31.3989 4.17882 32.4815 2.81592 33.0009 1.21089C31.6609 1.99294 30.1757 2.56222 28.5946 2.87927C27.5516 1.76386 26.1694 1.02407 24.6627 0.774773C23.1561 0.525474 21.6093 0.780619 20.2625 1.50059C18.9158 2.22056 17.8444 3.36506 17.2148 4.75637C16.5852 6.14768 16.4326 7.70794 16.7807 9.19487C11.0175 8.92292 5.90947 6.15544 2.49098 1.9718C1.86928 3.02837 1.545 4.23345 1.55252 5.45934C1.55252 7.86891 2.77844 9.98679 4.63564 11.231C3.53493 11.196 2.45854 10.8984 1.49616 10.363V10.449C1.49553 12.0503 2.0489 13.6025 3.06239 14.8422C4.07587 16.082 5.48704 16.9329 7.05648 17.2507C6.03953 17.5232 4.97441 17.5641 3.93954 17.3705C4.38518 18.7485 5.24977 19.9531 6.41273 20.8162C7.5757 21.6793 8.97905 22.158 10.4271 22.1854C7.9745 24.1101 4.9463 25.1547 1.82871 25.1516C1.27916 25.1516 0.731014 25.1192 0.180054 25.0572C3.35858 27.0924 7.05439 28.1727 10.8287 28.1699C23.5867 28.1699 30.5547 17.6072 30.5547 8.46214C30.5547 8.16764 30.5547 7.87032 30.5336 7.5744C31.8947 6.59486 33.0688 5.37875 34 3.98401L33.9337 3.95582Z" fill="white"/>
</svg>
