<svg width="33" height="36" viewBox="0 0 33 36" fill="none" xmlns="http://www.w3.org/2000/svg">
<path d="M31.5992 27.7463L16.9421 36V29.5729L26.0736 24.5717L31.5975 27.7463H31.5992ZM32.6004 26.8431V9.5814L27.2389 12.6613V23.7564L32.6004 26.8414V26.8431ZM1.00296 27.7463L15.6567 36V29.5729L6.52685 24.5717L1.00296 27.7463ZM0 26.8431V9.5814L5.36152 12.6613V23.7564L0 26.8414V26.8431ZM0.627484 8.46512L15.6567 0V6.21395L6.02791 11.4875L5.95518 11.5298L0.627484 8.46512ZM31.9746 8.46512L16.9421 0V6.21395L26.5708 11.4875L26.6436 11.5298L31.9713 8.46512H31.9746ZM15.6567 28.1099L6.64694 23.178V13.4072L15.655 18.586V28.1082L15.6567 28.1099ZM16.9421 28.1099L25.9501 23.178V13.4072L16.9421 18.586V28.1099ZM7.2592 12.2757L16.3028 7.32347L25.3463 12.2757L16.3028 17.4765L7.2592 12.2757Z" fill="#3D64AF"/>
</svg>
